<?xml version="1.0" encoding="UTF-8"?>
<svg xmlns="http://www.w3.org/2000/svg" xmlns:xlink="http://www.w3.org/1999/xlink" width="px" height="px" viewBox="0 0 498 109" version="1.1">
<g id="surface1">
<path style=" stroke:none;fill-rule:evenodd;fill:rgb(1.960784%,2.352941%,2.352941%);fill-opacity:1;" d="M 380.105469 69.492188 C 386.753906 61.238281 393.183594 53.261719 399.605469 45.277344 C 403.472656 40.46875 407.316406 35.644531 411.179688 30.832031 C 411.441406 30.507812 411.703125 30.21875 412.238281 30.222656 C 416.367188 30.253906 420.488281 30.238281 424.84375 30.238281 C 423.261719 32.230469 421.800781 34.074219 420.332031 35.914062 C 414.371094 43.402344 408.410156 50.890625 402.425781 58.363281 C 402.058594 58.820312 402.109375 59.152344 402.351562 59.605469 C 404.753906 64.144531 407.140625 68.695312 409.542969 73.238281 C 412.386719 78.621094 415.242188 84 418.085938 89.386719 C 421.113281 95.117188 424.117188 100.867188 427.183594 106.582031 C 427.738281 107.621094 427.492188 107.746094 426.449219 107.730469 C 422.949219 107.675781 419.449219 107.691406 415.949219 107.71875 C 415.308594 107.722656 414.972656 107.535156 414.667969 106.945312 C 408.203125 94.488281 401.710938 82.039062 395.222656 69.59375 C 395.003906 69.171875 394.800781 68.742188 394.550781 68.234375 C 392.9375 69.65625 391.6875 71.375 390.289062 72.949219 C 386.984375 76.667969 383.734375 80.4375 380.429688 84.15625 C 380.042969 84.59375 380.113281 85.023438 380.109375 85.476562 C 380.101562 92.476562 380.085938 99.480469 380.128906 106.480469 C 380.132812 107.441406 379.945312 107.765625 378.914062 107.738281 C 376.054688 107.65625 373.1875 107.675781 370.324219 107.726562 C 369.527344 107.738281 369.347656 107.5 369.347656 106.726562 C 369.367188 71.484375 369.367188 36.242188 369.347656 1 C 369.347656 0.21875 369.539062 -0.00390625 370.332031 0.0117188 C 373.191406 0.0585938 376.058594 0.0820312 378.917969 0 C 379.960938 -0.0273438 380.128906 0.308594 380.125 1.265625 C 380.097656 23.378906 380.105469 45.496094 380.105469 67.613281 Z M 380.105469 69.492188 "/>
<path style=" stroke:none;fill-rule:evenodd;fill:rgb(1.960784%,2.352941%,2.352941%);fill-opacity:1;" d="M 298.007812 40.796875 C 299.46875 39.425781 300.691406 38.261719 301.933594 37.121094 C 305.28125 34.054688 308.90625 31.414062 313.308594 30.078125 C 320.074219 28.027344 326.734375 28.226562 333.148438 31.414062 C 338.121094 33.886719 341.074219 38.027344 342.632812 43.261719 C 343.269531 45.402344 343.589844 47.578125 343.589844 49.808594 C 343.589844 68.660156 343.582031 87.515625 343.613281 106.367188 C 343.613281 107.425781 343.394531 107.78125 342.277344 107.742188 C 339.535156 107.652344 336.785156 107.652344 334.042969 107.734375 C 333.011719 107.765625 332.828125 107.457031 332.828125 106.488281 C 332.859375 87.558594 332.914062 68.625 332.804688 49.691406 C 332.777344 45.078125 330.949219 41.148438 326.421875 39.175781 C 323.535156 37.914062 320.417969 37.710938 317.3125 38.214844 C 310.660156 39.296875 305.382812 42.882812 300.492188 47.316406 C 298.503906 49.117188 297.933594 51.015625 297.949219 53.617188 C 298.058594 71.234375 297.996094 88.855469 298.027344 106.472656 C 298.027344 107.425781 297.867188 107.765625 296.824219 107.738281 C 294.042969 107.652344 291.257812 107.660156 288.472656 107.734375 C 287.472656 107.761719 287.242188 107.492188 287.242188 106.5 C 287.273438 72.613281 287.265625 38.722656 287.265625 4.839844 C 287.265625 3.5625 287.304688 2.289062 287.25 1.019531 C 287.21875 0.273438 287.378906 -0.0078125 288.210938 0.0078125 C 291.113281 0.0664062 294.019531 0.0703125 296.917969 0.0078125 C 297.820312 -0.0117188 298.027344 0.230469 298.027344 1.121094 C 297.996094 13.808594 298.007812 26.496094 298.007812 39.1875 Z M 298.007812 40.796875 "/>
<path style=" stroke:none;fill-rule:evenodd;fill:rgb(1.960784%,2.352941%,2.352941%);fill-opacity:1;" d="M 242.917969 109.273438 C 234.5 109.285156 227.589844 107.65625 221.257812 103.8125 C 217.523438 101.542969 214.460938 98.558594 211.75 95.167969 C 211.34375 94.660156 211.464844 94.367188 211.960938 94.003906 C 214.390625 92.222656 216.808594 90.429688 219.1875 88.585938 C 219.765625 88.140625 219.929688 88.382812 220.269531 88.824219 C 222.625 91.875 225.289062 94.613281 228.644531 96.570312 C 233.816406 99.59375 239.402344 100.480469 245.316406 99.820312 C 248.617188 99.453125 251.683594 98.535156 254.253906 96.410156 C 258.363281 93.019531 259.921875 88.265625 257.894531 83.382812 C 256.835938 80.832031 254.804688 79.15625 252.511719 77.703125 C 248.691406 75.289062 244.332031 74.265625 240.164062 72.761719 C 235.242188 70.992188 230.148438 69.652344 225.351562 67.605469 C 218.875 64.851562 214.183594 59.925781 213.757812 51.800781 C 213.527344 47.460938 214.1875 43.300781 216.378906 39.492188 C 217.644531 37.285156 219.253906 35.367188 221.355469 33.855469 C 226.074219 30.460938 231.382812 29.015625 237.109375 28.804688 C 243.832031 28.554688 250.039062 30.25 255.90625 33.503906 C 259.207031 35.335938 262.023438 37.695312 264.511719 40.496094 C 264.929688 40.96875 265.285156 41.492188 265.6875 41.976562 C 266.046875 42.40625 265.679688 42.640625 265.433594 42.855469 C 263.351562 44.667969 261.234375 46.4375 259.183594 48.285156 C 258.613281 48.796875 258.394531 48.78125 257.84375 48.226562 C 255.785156 46.144531 253.863281 43.917969 251.390625 42.25 C 246.578125 39 241.320312 37.496094 235.546875 38.140625 C 231.277344 38.617188 227.265625 39.867188 225.460938 44.28125 C 223.601562 48.828125 224.011719 52.886719 228.023438 56.132812 C 230.914062 58.476562 234.335938 59.632812 237.777344 60.808594 C 243.328125 62.707031 248.824219 64.761719 254.410156 66.539062 C 258.859375 67.957031 262.554688 70.40625 265.394531 74.03125 C 268.621094 78.160156 269.746094 82.9375 269.410156 88.167969 C 269.171875 91.816406 268.222656 95.160156 266.265625 98.222656 C 264.121094 101.574219 261.140625 104 257.671875 105.867188 C 253.410156 108.160156 247.695312 109.402344 242.917969 109.273438 "/>
<path style=" stroke:none;fill-rule:evenodd;fill:rgb(1.960784%,2.352941%,2.352941%);fill-opacity:1;" d="M 179.363281 45.671875 C 180.105469 44.492188 180.789062 43.367188 181.515625 42.265625 C 183.597656 39.117188 185.898438 36.160156 188.933594 33.839844 C 192.394531 31.1875 196.339844 29.835938 200.605469 29.296875 C 201.742188 29.15625 202.882812 28.992188 204.042969 29.03125 C 204.574219 29.046875 204.707031 29.199219 204.703125 29.710938 C 204.679688 32.851562 204.679688 35.996094 204.703125 39.140625 C 204.707031 39.660156 204.542969 39.765625 204.039062 39.808594 C 202.390625 39.941406 200.746094 40.113281 199.132812 40.519531 C 194.484375 41.679688 190.679688 44.125 187.691406 47.878906 C 183.664062 52.933594 181.214844 58.769531 179.234375 64.84375 C 179.117188 65.207031 179.15625 65.625 179.15625 66.019531 C 179.152344 79.503906 179.144531 92.988281 179.175781 106.476562 C 179.179688 107.421875 179.027344 107.765625 177.976562 107.734375 C 175.113281 107.648438 172.25 107.6875 169.386719 107.730469 C 168.609375 107.742188 168.398438 107.527344 168.398438 106.738281 C 168.417969 81.558594 168.417969 56.378906 168.398438 31.195312 C 168.398438 30.425781 168.582031 30.207031 169.371094 30.21875 C 172.3125 30.269531 175.257812 30.269531 178.199219 30.21875 C 178.972656 30.207031 179.179688 30.410156 179.175781 31.1875 C 179.132812 35.605469 179.148438 40.019531 179.164062 44.433594 C 179.164062 44.804688 179.023438 45.207031 179.363281 45.671875 "/>
<path style=" stroke:none;fill-rule:evenodd;fill:rgb(1.960784%,2.352941%,2.352941%);fill-opacity:1;" d="M 59.117188 86.46875 C 57.339844 90.714844 54.054688 93.386719 49.957031 95.117188 C 45.714844 96.910156 41.226562 97.472656 36.640625 97.566406 C 28.8125 97.726562 20.984375 97.570312 13.15625 97.667969 C 12.226562 97.679688 11.964844 97.441406 11.972656 96.496094 C 12.015625 90.015625 11.996094 83.535156 11.996094 77.054688 L 11.992188 77.054688 C 11.992188 70.535156 12.003906 64.015625 11.976562 57.496094 C 11.972656 56.742188 12.117188 56.472656 12.933594 56.476562 C 19.769531 56.511719 26.613281 56.363281 33.445312 56.539062 C 38.542969 56.675781 43.605469 57.304688 48.324219 59.546875 C 52.734375 61.636719 56.339844 64.613281 58.640625 68.980469 C 60.304688 72.136719 60.695312 75.582031 60.632812 79.09375 C 60.589844 81.644531 60.105469 84.105469 59.117188 86.46875 M 11.996094 28.238281 C 11.996094 22.589844 12.011719 16.941406 11.976562 11.292969 C 11.972656 10.453125 12.113281 10.160156 13.054688 10.164062 C 21.367188 10.210938 29.683594 10.097656 37.992188 10.234375 C 41.535156 10.292969 45.082031 10.726562 48.445312 12.070312 C 53.210938 13.976562 56.148438 17.402344 57.285156 22.390625 C 58.09375 25.914062 58.261719 29.433594 57.238281 32.957031 C 55.9375 37.457031 52.878906 40.515625 48.984375 42.789062 C 44.382812 45.464844 39.292969 46.308594 34.039062 46.328125 C 27.078125 46.351562 20.117188 46.316406 13.160156 46.355469 C 12.246094 46.359375 11.964844 46.148438 11.972656 45.183594 C 12.023438 39.535156 11.996094 33.886719 11.996094 28.238281 M 71.945312 72.6875 C 70.578125 65.847656 66.984375 60.414062 61.453125 56.269531 C 58.746094 54.242188 55.761719 52.703125 52.429688 51.945312 C 52.195312 51.890625 51.914062 51.835938 51.890625 51.570312 C 51.863281 51.238281 52.207031 51.289062 52.410156 51.203125 C 54.15625 50.476562 55.910156 49.785156 57.574219 48.863281 C 61.136719 46.886719 64.125 44.296875 66.289062 40.820312 C 69.097656 36.300781 70.003906 31.304688 69.851562 26.054688 C 69.542969 15.277344 64.1875 7.789062 54.722656 3.09375 C 49.648438 0.570312 44.097656 0.0742188 38.53125 0.046875 C 26.121094 -0.015625 13.714844 0.0429688 1.304688 0.00390625 C 0.246094 0 -0.00390625 0.273438 0 1.320312 C 0.0351562 18.859375 0.0234375 36.402344 0.0234375 53.941406 L 0.0195312 53.941406 L 0.0195312 105.96875 C 0.0195312 107.8125 0.0195312 107.8125 1.914062 107.8125 C 12.8125 107.8125 23.710938 107.847656 34.605469 107.792969 C 38.601562 107.773438 42.605469 107.597656 46.550781 106.851562 C 52.128906 105.789062 57.550781 104.324219 62.285156 100.976562 C 66.289062 98.148438 69.214844 94.507812 70.820312 89.863281 C 72.761719 84.246094 73.113281 78.515625 71.945312 72.6875 "/>
<path style=" stroke:none;fill-rule:evenodd;fill:rgb(1.960784%,2.352941%,2.352941%);fill-opacity:1;" d="M 485.113281 76.664062 C 485.113281 79.921875 485.113281 83.183594 485.113281 86.445312 C 485.113281 86.917969 485.109375 87.332031 484.730469 87.746094 C 480.132812 92.78125 474.667969 96.539062 468.242188 98.816406 C 465.042969 99.949219 461.6875 100.609375 458.34375 99.683594 C 454.171875 98.523438 450.703125 96.199219 449.160156 91.984375 C 447.800781 88.265625 448.316406 84.554688 450.527344 81.199219 C 453.554688 76.601562 458.164062 74.109375 463.039062 72.011719 C 469.855469 69.085938 477.007812 67.347656 484.292969 66.09375 C 485.09375 65.953125 485.125 66.261719 485.121094 66.878906 C 485.101562 70.140625 485.113281 73.402344 485.113281 76.664062 M 497.476562 106.675781 C 496.242188 101.195312 495.855469 95.632812 495.855469 90.027344 C 495.851562 76.785156 495.867188 63.539062 495.84375 50.292969 C 495.839844 46.738281 494.871094 43.390625 493.105469 40.339844 C 489.488281 34.082031 483.703125 30.894531 476.863281 29.511719 C 472.179688 28.5625 467.421875 28.527344 462.664062 29.257812 C 452.757812 30.777344 445.363281 35.921875 440.332031 44.546875 C 440.0625 45.011719 439.886719 45.25 440.558594 45.578125 C 443.21875 46.882812 445.851562 48.246094 448.460938 49.652344 C 449.214844 50.058594 449.472656 49.933594 449.824219 49.15625 C 451.578125 45.261719 454.238281 42.109375 458.144531 40.289062 C 463.894531 37.605469 469.945312 37.316406 476.011719 38.890625 C 480.539062 40.0625 483.535156 42.964844 484.664062 47.683594 C 485.324219 50.445312 484.988281 53.214844 485.121094 55.980469 C 485.148438 56.546875 484.785156 56.476562 484.449219 56.539062 C 482.46875 56.917969 480.488281 57.28125 478.515625 57.695312 C 468.921875 59.707031 459.445312 62.113281 450.738281 66.796875 C 446.90625 68.859375 443.550781 71.566406 441.195312 75.308594 C 438.113281 80.207031 437.359375 85.578125 437.949219 91.261719 C 438.554688 97.082031 441.21875 101.695312 445.824219 105.171875 C 449.15625 107.6875 453.015625 108.890625 457.179688 109.164062 C 462.015625 109.480469 466.710938 108.960938 471.269531 107.210938 C 476.402344 105.242188 480.6875 102.089844 484.453125 98.15625 C 484.757812 97.839844 484.964844 97.335938 485.539062 97.335938 C 485.898438 100.546875 486.246094 103.734375 486.621094 106.914062 C 486.664062 107.28125 486.457031 107.828125 487.210938 107.820312 C 490.667969 107.800781 494.121094 107.8125 497.613281 107.8125 C 497.5625 107.371094 497.554688 107.015625 497.476562 106.675781 "/>
<path style=" stroke:none;fill-rule:evenodd;fill:rgb(1.960784%,2.352941%,2.352941%);fill-opacity:1;" d="M 100.539062 60.785156 C 101.09375 55.339844 102.40625 50.15625 105.625 45.605469 C 108.585938 41.421875 112.59375 39.035156 117.683594 38.324219 C 120.789062 37.890625 123.828125 37.976562 126.84375 38.820312 C 129.746094 39.636719 132.058594 41.34375 134.050781 43.578125 C 137.875 47.863281 139.21875 53.046875 139.640625 58.585938 C 139.699219 59.335938 139.691406 60.09375 139.789062 60.835938 C 139.898438 61.695312 139.558594 61.867188 138.742188 61.863281 C 132.542969 61.828125 126.347656 61.84375 120.148438 61.84375 C 113.949219 61.84375 107.75 61.828125 101.550781 61.863281 C 100.683594 61.867188 100.457031 61.601562 100.539062 60.785156 M 152.28125 90.871094 C 150.695312 90.070312 149.109375 89.265625 147.519531 88.472656 C 146.570312 88 145.46875 87.03125 144.691406 87.242188 C 143.914062 87.449219 143.464844 88.855469 142.859375 89.726562 C 137.113281 97.984375 129.191406 100.929688 120.035156 99.835938 C 113.953125 99.113281 109.382812 95.625 105.851562 90.738281 C 101.839844 85.183594 100.300781 78.859375 100.132812 72.105469 C 100.109375 71.164062 100.40625 71.03125 101.246094 71.035156 C 109.242188 71.066406 117.238281 71.054688 125.230469 71.054688 L 137.28125 71.054688 C 141.339844 71.054688 145.394531 71.023438 149.453125 71.082031 C 150.371094 71.09375 150.558594 70.835938 150.539062 69.96875 C 150.476562 67.265625 150.589844 64.554688 150.5 61.855469 C 150.28125 55.363281 149.316406 49.019531 146.195312 43.207031 C 143.199219 37.628906 138.886719 33.394531 132.96875 30.980469 C 128.230469 29.046875 123.269531 28.515625 118.183594 28.898438 C 111.421875 29.410156 105.507812 31.851562 100.652344 36.609375 C 96.207031 40.964844 93.253906 46.238281 91.566406 52.210938 C 90.265625 56.835938 89.605469 61.554688 89.488281 66.371094 C 89.363281 71.496094 89.539062 76.570312 90.625 81.597656 C 92.101562 88.414062 94.84375 94.574219 99.742188 99.65625 C 103.195312 103.242188 107.195312 105.980469 111.933594 107.578125 C 118.011719 109.621094 124.21875 109.667969 130.472656 108.660156 C 135.230469 107.894531 139.667969 106.234375 143.417969 103.160156 C 147.253906 100.019531 150.222656 96.105469 152.691406 91.808594 C 153.046875 91.191406 152.675781 91.066406 152.28125 90.871094 "/>
</g>
</svg>
