<?xml version="1.0" encoding="UTF-8"?>
<svg xmlns="http://www.w3.org/2000/svg" xmlns:xlink="http://www.w3.org/1999/xlink" width="150px" height="150px" viewBox="0 0 36 18" version="1.1">
<g id="surface1">
<path style=" stroke:none;fill-rule:nonzero;fill:rgb(95.686275%,34.509804%,0%);fill-opacity:1;" d="M 4.910156 2.34375 L 4.910156 6.851562 C 4.910156 6.851562 6.496094 6.851562 7.347656 6.785156 C 8.015625 6.667969 8.140625 6.605469 8.261719 5.933594 L 8.507812 4.957031 L 9.234375 4.957031 L 9.113281 7.097656 L 9.175781 9.289062 L 8.445312 9.289062 L 8.261719 8.429688 C 8.082031 7.824219 7.835938 7.699219 7.347656 7.640625 C 6.738281 7.574219 4.910156 7.574219 4.910156 7.574219 L 4.910156 11.355469 C 4.910156 12.082031 5.277344 12.390625 6.128906 12.390625 L 8.691406 12.390625 C 9.480469 12.390625 10.269531 12.328125 10.765625 11.171875 L 11.425781 9.707031 L 12.042969 9.707031 C 11.976562 10.011719 11.671875 12.695312 11.613281 13.300781 C 11.613281 13.300781 9.300781 13.242188 8.328125 13.242188 L 3.9375 13.242188 L 1.320312 13.300781 L 1.320312 12.636719 L 2.167969 12.449219 C 2.785156 12.328125 2.964844 12.144531 2.964844 11.660156 C 2.964844 11.660156 3.027344 10.011719 3.027344 7.269531 C 3.027344 4.535156 2.964844 2.886719 2.964844 2.886719 C 2.964844 2.34375 2.785156 2.21875 2.167969 2.097656 L 1.320312 1.917969 L 1.320312 1.246094 L 3.878906 1.300781 L 8.753906 1.300781 C 9.726562 1.300781 11.367188 1.125 11.367188 1.125 C 11.367188 1.125 11.308594 2.15625 11.242188 4.59375 L 10.574219 4.59375 L 10.328125 3.738281 C 10.089844 2.640625 9.726562 2.097656 9.050781 2.097656 L 5.222656 2.097656 C 4.910156 2.097656 4.910156 2.15625 4.910156 2.34375 Z M 14.777344 2.824219 L 15.511719 2.824219 L 15.511719 5.386719 L 18.011719 5.261719 L 17.890625 6.421875 L 15.453125 6.234375 L 15.453125 10.746094 C 15.453125 12.023438 15.878906 12.515625 16.613281 12.515625 C 17.273438 12.515625 17.765625 12.148438 17.949219 11.84375 L 18.308594 12.269531 C 17.949219 13.121094 16.917969 13.546875 15.9375 13.546875 C 14.726562 13.546875 13.738281 12.820312 13.738281 11.421875 L 13.738281 6.296875 L 12.285156 6.296875 L 12.285156 5.691406 C 13.507812 5.566406 14.414062 4.832031 14.777344 2.824219 Z M 20.019531 10.679688 L 20.507812 11.839844 C 20.6875 12.328125 21.117188 12.820312 22.089844 12.820312 C 23.125 12.820312 23.554688 12.269531 23.554688 11.601562 C 23.554688 9.527344 19.46875 10.136719 19.46875 7.335938 C 19.46875 5.753906 20.746094 5.015625 22.394531 5.015625 C 23.125 5.015625 24.222656 5.136719 24.773438 5.382812 C 24.648438 5.992188 24.585938 6.785156 24.585938 7.394531 L 23.980469 7.453125 L 23.554688 6.234375 C 23.429688 5.933594 22.9375 5.6875 22.335938 5.6875 C 21.601562 5.6875 20.871094 5.992188 20.871094 6.785156 C 20.871094 8.671875 25.078125 8.25 25.078125 11.050781 C 25.078125 12.636719 23.675781 13.488281 21.964844 13.488281 C 20.6875 13.488281 19.40625 12.996094 19.40625 12.996094 C 19.527344 12.269531 19.46875 11.480469 19.40625 10.679688 Z M 24.773438 16.527344 C 24.953125 15.859375 25.078125 15.011719 25.199219 14.214844 L 25.867188 14.15625 L 26.113281 15.433594 C 26.171875 15.738281 26.355469 15.984375 26.839844 15.984375 C 27.632812 15.984375 28.671875 15.496094 29.648438 13.792969 C 29.214844 12.753906 27.9375 9.410156 26.777344 6.847656 C 26.472656 6.175781 26.414062 6.117188 25.992188 5.992188 L 25.679688 5.875 L 25.679688 5.261719 L 27.515625 5.324219 L 29.765625 5.203125 L 29.765625 5.8125 L 29.214844 5.933594 C 28.789062 5.992188 28.609375 6.234375 28.609375 6.480469 C 28.609375 6.546875 28.609375 6.605469 28.667969 6.726562 C 28.785156 7.097656 29.765625 9.832031 30.496094 11.660156 C 31.101562 10.382812 32.261719 7.519531 32.445312 7.03125 C 32.507812 6.785156 32.566406 6.726562 32.566406 6.546875 C 32.566406 6.234375 32.386719 6.054688 31.960938 5.9375 L 31.527344 5.8125 L 31.527344 5.203125 L 33.238281 5.261719 L 34.820312 5.203125 L 34.820312 5.8125 L 34.515625 6.050781 C 33.910156 6.296875 33.84375 6.355469 33.601562 6.847656 L 30.925781 13.117188 C 29.335938 16.714844 27.691406 17.019531 26.535156 17.019531 C 25.804688 17.019531 25.253906 16.832031 24.773438 16.527344 Z M 24.773438 16.527344 "/>
</g>
</svg>
