<?xml version="1.0" encoding="UTF-8"?>
<svg xmlns="http://www.w3.org/2000/svg" xmlns:xlink="http://www.w3.org/1999/xlink" width="150px" height="150px" viewBox="0 0 310 61" version="1.1">
<g id="surface1">
<path style=" stroke:none;fill-rule:nonzero;fill:rgb(0%,0%,0%);fill-opacity:1;" d="M 61.101562 3.996094 C 57.660156 4.328125 54.257812 5.3125 52.128906 6.605469 C 50.378906 7.648438 48.476562 9.738281 47.644531 11.535156 C 46.289062 14.5 46.265625 14.792969 46.328125 30.601562 C 46.414062 44.695312 46.414062 44.820312 46.894531 46.367188 C 47.75 49.207031 48.5 50.5 50.335938 52.316406 C 51.585938 53.570312 52.421875 54.195312 53.589844 54.738281 C 55.949219 55.886719 58.429688 56.515625 61.433594 56.746094 L 63.1875 56.871094 L 63.1875 48.496094 L 62.414062 48.351562 C 61.101562 48.121094 59.746094 47.429688 58.953125 46.617188 C 57.492188 45.113281 57.554688 45.800781 57.554688 30.472656 L 57.535156 16.671875 L 58.035156 15.585938 C 58.742188 14.0625 60.371094 12.890625 62.207031 12.578125 L 63.082031 12.410156 L 63.144531 8.089844 C 63.167969 5.707031 63.125 3.785156 63.042969 3.785156 C 62.9375 3.808594 62.082031 3.890625 61.101562 3.996094 Z M 61.101562 3.996094 "/>
<path style=" stroke:none;fill-rule:nonzero;fill:rgb(0%,0%,0%);fill-opacity:1;" d="M 66.527344 8.027344 L 66.527344 12.285156 L 67.589844 12.515625 C 69.070312 12.828125 69.988281 13.308594 70.824219 14.164062 C 72.203125 15.585938 72.179688 15.3125 72.117188 30.828125 L 72.054688 44.800781 L 71.472656 45.800781 C 70.742188 47.054688 69.382812 47.953125 67.734375 48.289062 L 66.527344 48.539062 L 66.527344 56.871094 L 68.464844 56.746094 C 73.328125 56.429688 77.125 54.96875 79.671875 52.421875 C 81.277344 50.835938 82.339844 48.832031 83.03125 46.15625 C 83.488281 44.425781 83.511719 44.046875 83.574219 31.226562 C 83.59375 23.082031 83.550781 17.359375 83.40625 16.191406 C 82.570312 8.796875 78.105469 4.851562 69.636719 3.972656 C 68.464844 3.871094 67.296875 3.765625 67.027344 3.765625 L 66.527344 3.765625 Z M 66.527344 8.027344 "/>
<path style=" stroke:none;fill-rule:nonzero;fill:rgb(0%,0%,0%);fill-opacity:1;" d="M 187.121094 3.890625 C 178.277344 4.726562 173.976562 7.335938 171.953125 13.101562 L 171.371094 14.730469 L 171.371094 29.660156 C 171.371094 46.34375 171.328125 45.78125 172.871094 49.082031 C 173.75 50.917969 176.085938 53.402344 177.941406 54.449219 C 180.113281 55.679688 184.535156 56.808594 187.164062 56.808594 L 188.164062 56.808594 L 188.164062 48.496094 L 187.394531 48.351562 C 186.226562 48.140625 184.597656 47.347656 183.910156 46.660156 C 183.574219 46.324219 183.136719 45.65625 182.90625 45.15625 C 182.53125 44.320312 182.511719 43.609375 182.53125 30.371094 C 182.53125 19.324219 182.59375 16.335938 182.824219 15.816406 C 183.472656 14.226562 184.953125 13.121094 187.019531 12.640625 L 188.0625 12.410156 L 188.125 8.089844 C 188.144531 5.707031 188.101562 3.785156 188.019531 3.808594 C 187.914062 3.808594 187.519531 3.871094 187.121094 3.890625 Z M 187.121094 3.890625 "/>
<path style=" stroke:none;fill-rule:nonzero;fill:rgb(0%,0%,0%);fill-opacity:1;" d="M 191.234375 3.910156 C 191.148438 3.972656 191.085938 5.894531 191.085938 8.152344 L 191.085938 12.265625 L 192.503906 12.621094 C 194.363281 13.078125 195.425781 13.832031 196.15625 15.25 L 196.742188 16.398438 L 196.71875 30.371094 C 196.71875 43.964844 196.699219 44.363281 196.28125 45.300781 C 196.050781 45.824219 195.65625 46.492188 195.40625 46.761719 C 194.820312 47.390625 193.109375 48.203125 191.984375 48.371094 L 191.109375 48.496094 L 191.109375 56.871094 L 193.027344 56.746094 C 199.621094 56.347656 204.273438 53.800781 206.421875 49.4375 C 206.816406 48.601562 207.359375 47.179688 207.609375 46.261719 C 208.070312 44.613281 208.089844 44.445312 208.089844 30.078125 C 208.089844 16.609375 208.070312 15.460938 207.695312 14.101562 C 206.234375 8.546875 202.625 5.394531 196.492188 4.308594 C 194.402344 3.953125 191.421875 3.703125 191.234375 3.910156 Z M 191.234375 3.910156 "/>
<path style=" stroke:none;fill-rule:nonzero;fill:rgb(0%,0%,0%);fill-opacity:1;" d="M 281.492188 3.996094 C 280.449219 4.097656 278.675781 4.414062 277.527344 4.707031 C 271.832031 6.144531 268.492188 9.277344 267.324219 14.3125 C 266.949219 15.855469 266.929688 17.046875 266.929688 30.183594 C 266.929688 44.234375 266.929688 44.402344 267.410156 46.242188 C 268.617188 50.980469 271.496094 54.050781 276.234375 55.636719 C 277.945312 56.203125 281.199219 56.808594 282.640625 56.808594 L 283.515625 56.808594 L 283.515625 48.476562 L 282.367188 48.140625 C 281.660156 47.953125 280.886719 47.515625 280.386719 47.054688 C 278.882812 45.71875 278.90625 45.988281 278.96875 29.953125 L 279.03125 15.773438 L 279.613281 14.792969 C 280.238281 13.707031 281.554688 12.808594 282.765625 12.597656 L 283.515625 12.472656 L 283.515625 8.128906 C 283.515625 5.726562 283.496094 3.785156 283.472656 3.785156 C 283.433594 3.808594 282.554688 3.910156 281.492188 3.996094 Z M 281.492188 3.996094 "/>
<path style=" stroke:none;fill-rule:nonzero;fill:rgb(0%,0%,0%);fill-opacity:1;" d="M 286.226562 8.027344 L 286.226562 12.285156 L 287.3125 12.515625 C 288.792969 12.847656 289.878906 13.496094 290.546875 14.5 C 291.132812 15.398438 291.171875 15.773438 291.296875 20.160156 L 291.339844 21.828125 L 297.472656 21.890625 L 303.609375 21.933594 L 303.484375 18.445312 C 303.398438 15.5625 303.296875 14.625 302.878906 13.226562 C 301.5625 8.859375 298.351562 5.957031 293.382812 4.683594 C 291.695312 4.265625 288.148438 3.765625 286.730469 3.765625 L 286.226562 3.765625 Z M 286.226562 8.027344 "/>
<path style=" stroke:none;fill-rule:nonzero;fill:rgb(0%,0%,0%);fill-opacity:1;" d="M 6.019531 30.390625 L 6.019531 55.761719 L 6.5 55.867188 C 6.75 55.929688 9.398438 55.953125 12.382812 55.929688 L 17.808594 55.867188 L 17.808594 5.121094 L 11.925781 5.058594 L 6.019531 5.019531 Z M 6.019531 30.390625 "/>
<path style=" stroke:none;fill-rule:nonzero;fill:rgb(0%,0%,0%);fill-opacity:1;" d="M 30.578125 5.164062 C 30.492188 5.226562 30.429688 9.84375 30.429688 15.375 L 30.429688 25.484375 L 25.695312 25.523438 L 20.9375 25.585938 L 20.875 29.386719 L 20.832031 33.210938 L 30.429688 33.210938 L 30.472656 44.527344 L 30.535156 55.867188 L 36.441406 55.929688 L 42.324219 55.992188 L 42.324219 5.019531 L 36.523438 5.019531 C 33.332031 5.019531 30.640625 5.082031 30.578125 5.164062 Z M 30.578125 5.164062 "/>
<path style=" stroke:none;fill-rule:nonzero;fill:rgb(0%,0%,0%);fill-opacity:1;" d="M 86.347656 9.402344 L 86.347656 13.789062 L 104.457031 13.746094 L 122.546875 13.683594 L 122.589844 9.339844 L 122.628906 5.019531 L 86.347656 5.019531 Z M 86.347656 9.402344 "/>
<path style=" stroke:none;fill-rule:nonzero;fill:rgb(0%,0%,0%);fill-opacity:1;" d="M 132.082031 9.339844 L 132.144531 13.683594 L 150.253906 13.746094 L 168.34375 13.789062 L 168.34375 5.019531 L 132.039062 5.019531 Z M 132.082031 9.339844 "/>
<path style=" stroke:none;fill-rule:nonzero;fill:rgb(0%,0%,0%);fill-opacity:1;" d="M 211.992188 30.433594 L 212.054688 55.867188 L 223.53125 55.867188 L 223.59375 30.433594 L 223.636719 5.019531 L 211.949219 5.019531 Z M 211.992188 30.433594 "/>
<path style=" stroke:none;fill-rule:nonzero;fill:rgb(0%,0%,0%);fill-opacity:1;" d="M 226.554688 9.402344 L 226.554688 13.789062 L 230.082031 13.789062 C 234.464844 13.789062 235.882812 14.144531 237.300781 15.5625 C 238.40625 16.671875 238.761719 17.695312 238.742188 19.949219 C 238.71875 22.476562 237.863281 23.980469 235.964844 24.941406 C 234.484375 25.691406 232.980469 25.921875 229.644531 25.921875 L 226.554688 25.902344 L 226.554688 33.628906 L 231.105469 33.628906 C 237.90625 33.628906 240.996094 33.023438 243.414062 31.226562 C 245.3125 29.828125 246.398438 27.90625 247.148438 24.566406 C 247.628906 22.414062 247.628906 16.484375 247.148438 14.519531 C 245.523438 7.878906 240.367188 5.019531 230.0625 5.019531 L 226.554688 5.019531 Z M 226.554688 9.402344 "/>
<path style=" stroke:none;fill-rule:nonzero;fill:rgb(0%,0%,0%);fill-opacity:1;" d="M 251.21875 30.433594 L 251.28125 55.867188 L 256.976562 55.929688 L 262.652344 55.992188 L 262.652344 5.019531 L 251.175781 5.019531 Z M 251.21875 30.433594 "/>
<path style=" stroke:none;fill-rule:nonzero;fill:rgb(0%,0%,0%);fill-opacity:1;" d="M 98.492188 36.175781 L 98.554688 55.867188 L 110.238281 55.867188 L 110.300781 36.175781 L 110.339844 16.503906 L 98.449219 16.503906 Z M 98.492188 36.175781 "/>
<path style=" stroke:none;fill-rule:nonzero;fill:rgb(0%,0%,0%);fill-opacity:1;" d="M 144.140625 36.113281 C 144.140625 52.882812 144.183594 55.742188 144.433594 55.824219 C 144.601562 55.886719 147.269531 55.953125 150.378906 55.972656 L 156.035156 55.992188 L 156.035156 16.503906 L 144.140625 16.503906 Z M 144.140625 36.113281 "/>
<path style=" stroke:none;fill-rule:nonzero;fill:rgb(0%,0%,0%);fill-opacity:1;" d="M 291.359375 40.433594 C 291.296875 40.625 291.234375 41.710938 291.234375 42.878906 C 291.234375 44.527344 291.132812 45.21875 290.839844 45.886719 C 290.296875 47.054688 289.003906 47.953125 287.460938 48.265625 L 286.226562 48.515625 L 286.226562 56.808594 L 287.125 56.808594 C 288.753906 56.808594 291.738281 56.347656 293.53125 55.824219 C 296.117188 55.074219 297.996094 54.007812 299.707031 52.316406 C 302.167969 49.894531 303.253906 47.117188 303.484375 42.542969 L 303.609375 40.101562 L 297.558594 40.101562 C 292.214844 40.101562 291.464844 40.144531 291.359375 40.433594 Z M 291.359375 40.433594 "/>
<path style=" stroke:none;fill-rule:nonzero;fill:rgb(0%,0%,0%);fill-opacity:1;" d="M 306.992188 6.160156 C 306.992188 6.582031 306.886719 6.972656 306.675781 7.332031 C 306.460938 7.695312 306.171875 7.980469 305.808594 8.1875 C 305.441406 8.394531 305.046875 8.5 304.621094 8.5 C 304.199219 8.5 303.804688 8.394531 303.441406 8.1875 C 303.074219 7.980469 302.785156 7.695312 302.574219 7.332031 C 302.359375 6.972656 302.253906 6.582031 302.253906 6.160156 C 302.253906 5.746094 302.359375 5.355469 302.574219 4.992188 C 302.785156 4.628906 303.074219 4.34375 303.441406 4.136719 C 303.804688 3.925781 304.199219 3.824219 304.621094 3.824219 C 305.046875 3.824219 305.441406 3.925781 305.808594 4.136719 C 306.171875 4.34375 306.460938 4.628906 306.675781 4.992188 C 306.886719 5.355469 306.992188 5.746094 306.992188 6.160156 Z M 306.53125 6.160156 C 306.53125 5.640625 306.347656 5.195312 305.972656 4.828125 C 305.601562 4.457031 305.148438 4.273438 304.621094 4.273438 C 304.09375 4.273438 303.644531 4.457031 303.269531 4.828125 C 302.898438 5.195312 302.710938 5.640625 302.710938 6.160156 C 302.710938 6.683594 302.898438 7.128906 303.269531 7.496094 C 303.644531 7.867188 304.09375 8.050781 304.621094 8.050781 C 305.148438 8.050781 305.601562 7.867188 305.972656 7.496094 C 306.347656 7.128906 306.53125 6.683594 306.53125 6.160156 Z M 303.550781 4.910156 L 304.679688 4.910156 C 305 4.910156 305.234375 4.976562 305.378906 5.101562 C 305.519531 5.230469 305.59375 5.402344 305.59375 5.617188 C 305.59375 5.785156 305.539062 5.929688 305.429688 6.050781 C 305.320312 6.175781 305.144531 6.261719 304.910156 6.316406 C 305.007812 6.355469 305.078125 6.394531 305.125 6.433594 C 305.1875 6.492188 305.257812 6.578125 305.328125 6.6875 C 305.332031 6.695312 305.46875 6.9375 305.734375 7.414062 L 304.992188 7.414062 C 304.75 6.9375 304.585938 6.652344 304.503906 6.558594 C 304.421875 6.464844 304.339844 6.417969 304.257812 6.417969 C 304.238281 6.417969 304.210938 6.421875 304.179688 6.429688 L 304.179688 7.414062 L 303.550781 7.414062 Z M 304.179688 5.972656 L 304.453125 5.972656 C 304.632812 5.972656 304.761719 5.941406 304.835938 5.882812 C 304.910156 5.828125 304.949219 5.75 304.949219 5.660156 C 304.949219 5.566406 304.914062 5.492188 304.839844 5.433594 C 304.769531 5.375 304.648438 5.347656 304.476562 5.347656 L 304.179688 5.347656 Z M 304.179688 5.972656 "/>
</g>
</svg>
