<svg width="92" height="14" viewBox="0 0 92 14" fill="none" xmlns="http://www.w3.org/2000/svg">
<path d="M7.50476 7.4375H5.8573C5.82996 7.73828 5.77071 8.00488 5.67957 8.2373C5.58842 8.46973 5.46765 8.66341 5.31726 8.81836C5.16231 8.97786 4.97546 9.09863 4.75671 9.18066C4.53796 9.2627 4.28731 9.30371 4.00476 9.30371C3.76778 9.30371 3.55587 9.27181 3.36902 9.20801C3.18673 9.13965 3.02494 9.04167 2.88367 8.91406C2.74695 8.79557 2.62846 8.6543 2.5282 8.49023C2.4325 8.32617 2.35274 8.14388 2.28894 7.94336C2.20691 7.70182 2.14539 7.43522 2.10437 7.14355C2.06791 6.85189 2.04968 6.53971 2.04968 6.20703V4.83301C2.04968 4.56413 2.06335 4.30208 2.0907 4.04688C2.1226 3.78711 2.16817 3.54329 2.22742 3.31543C2.30489 3.05566 2.40287 2.82096 2.52136 2.61133C2.64441 2.39714 2.79708 2.22396 2.97937 2.0918C3.11153 1.98242 3.26192 1.89811 3.43054 1.83887C3.60372 1.77962 3.7974 1.75 4.0116 1.75C4.31694 1.75 4.57898 1.79557 4.79773 1.88672C5.01648 1.97331 5.20105 2.10091 5.35144 2.26953C5.49727 2.43815 5.61121 2.64323 5.69324 2.88477C5.77983 3.12174 5.83679 3.38835 5.86414 3.68457H7.50476C7.45463 3.18783 7.34298 2.73665 7.1698 2.33105C7.00118 1.92546 6.76876 1.5791 6.47253 1.29199C6.18087 1.00944 5.82768 0.79069 5.41296 0.635742C5.00281 0.480794 4.53569 0.40332 4.0116 0.40332C3.62423 0.40332 3.26648 0.455729 2.93835 0.560547C2.61479 0.665365 2.31856 0.811198 2.04968 0.998047C1.76713 1.20312 1.51648 1.4515 1.29773 1.74316C1.08354 2.03027 0.908081 2.35156 0.771362 2.70703C0.643758 3.02604 0.548055 3.36556 0.484253 3.72559C0.420451 4.08561 0.38855 4.45931 0.38855 4.84668V6.20703C0.38855 6.61263 0.420451 7.00228 0.484253 7.37598C0.552612 7.74967 0.652873 8.09603 0.785034 8.41504C0.917196 8.73861 1.07898 9.03711 1.27039 9.31055C1.46635 9.57943 1.69421 9.80957 1.95398 10.001C2.22286 10.2061 2.5282 10.3656 2.87 10.4795C3.21635 10.5889 3.5946 10.6436 4.00476 10.6436C4.50606 10.6436 4.96179 10.5684 5.37195 10.418C5.78666 10.263 6.14441 10.0443 6.44519 9.76172C6.74141 9.48372 6.98067 9.14876 7.16296 8.75684C7.34526 8.36035 7.45919 7.92057 7.50476 7.4375ZM8.93347 6.7334V6.87695C8.93347 7.41927 9.01095 7.91829 9.16589 8.37402C9.32084 8.82975 9.54643 9.22624 9.84265 9.56348C10.1343 9.90072 10.4943 10.165 10.9227 10.3564C11.3511 10.5479 11.8365 10.6436 12.3788 10.6436C12.9165 10.6436 13.3973 10.5479 13.8212 10.3564C14.2496 10.165 14.6096 9.90072 14.9012 9.56348C15.1929 9.22624 15.4162 8.82975 15.5712 8.37402C15.7261 7.91829 15.8036 7.41927 15.8036 6.87695V6.7334C15.8036 6.19564 15.7261 5.69889 15.5712 5.24316C15.4162 4.78288 15.1929 4.38411 14.9012 4.04688C14.605 3.70964 14.2427 3.44531 13.8143 3.25391C13.3905 3.0625 12.9074 2.9668 12.3651 2.9668C11.8228 2.9668 11.3397 3.0625 10.9159 3.25391C10.4921 3.44531 10.1343 3.70964 9.84265 4.04688C9.54643 4.38411 9.32084 4.78288 9.16589 5.24316C9.01095 5.69889 8.93347 6.19564 8.93347 6.7334ZM10.5673 6.87695V6.7334C10.5673 6.40983 10.6014 6.09993 10.6698 5.80371C10.7427 5.50749 10.8544 5.24772 11.0048 5.02441C11.1506 4.80111 11.3352 4.62337 11.5585 4.49121C11.7863 4.35905 12.0552 4.29297 12.3651 4.29297C12.6796 4.29297 12.9484 4.35905 13.1718 4.49121C13.3996 4.62337 13.5887 4.80111 13.7391 5.02441C13.8804 5.24772 13.9875 5.50749 14.0604 5.80371C14.1333 6.09993 14.1698 6.40983 14.1698 6.7334V6.87695C14.1698 7.20964 14.1333 7.52409 14.0604 7.82031C13.9921 8.11654 13.885 8.3763 13.7391 8.59961C13.5933 8.82292 13.4065 9.00065 13.1786 9.13281C12.9507 9.26042 12.6841 9.32422 12.3788 9.32422C12.0643 9.32422 11.7932 9.26042 11.5653 9.13281C11.3374 9.00065 11.1506 8.82292 11.0048 8.59961C10.8544 8.3763 10.7427 8.11654 10.6698 7.82031C10.6014 7.52409 10.5673 7.20964 10.5673 6.87695ZM18.5721 3.10352H17.1503V10.5H18.6542V4.81934C18.6815 4.75098 18.7111 4.68945 18.743 4.63477C18.7795 4.58008 18.8205 4.53223 18.8661 4.49121C18.9253 4.43197 18.996 4.38867 19.078 4.36133C19.1646 4.32943 19.2626 4.31348 19.3719 4.31348C19.4722 4.31348 19.5611 4.32715 19.6385 4.35449C19.7206 4.38184 19.7912 4.42513 19.8505 4.48438C19.9097 4.54362 19.953 4.62565 19.9803 4.73047C20.0122 4.83073 20.0282 4.95378 20.0282 5.09961V10.5H21.5048V5.01074C21.5048 4.96517 21.5048 4.93099 21.5048 4.9082C21.5048 4.88086 21.5048 4.85807 21.5048 4.83984C21.523 4.76237 21.5503 4.69401 21.5868 4.63477C21.6233 4.57096 21.6688 4.51628 21.7235 4.4707C21.7828 4.42057 21.8511 4.38184 21.9286 4.35449C22.0061 4.32715 22.0972 4.31348 22.202 4.31348C22.3023 4.31348 22.3934 4.32715 22.4755 4.35449C22.5621 4.38184 22.635 4.42513 22.6942 4.48438C22.7535 4.54818 22.799 4.63249 22.8309 4.7373C22.8628 4.83757 22.8788 4.96061 22.8788 5.10645V10.5H24.3827V5.12012C24.3827 4.73275 24.3417 4.40234 24.2596 4.12891C24.1822 3.85091 24.0705 3.62533 23.9247 3.45215C23.7788 3.28809 23.6057 3.16732 23.4052 3.08984C23.2092 3.00781 22.9927 2.9668 22.7557 2.9668C22.5734 2.9668 22.4048 2.98958 22.2499 3.03516C22.0995 3.08073 21.9628 3.14453 21.8397 3.22656C21.744 3.29036 21.6552 3.36784 21.5731 3.45898C21.4911 3.55013 21.4182 3.64811 21.3544 3.75293C21.3088 3.639 21.2541 3.53874 21.1903 3.45215C21.1265 3.361 21.0536 3.28353 20.9716 3.21973C20.8667 3.13314 20.7414 3.06934 20.5956 3.02832C20.4497 2.9873 20.2857 2.9668 20.1034 2.9668C19.7525 2.9668 19.4517 3.05111 19.201 3.21973C18.955 3.38835 18.7613 3.62077 18.62 3.91699L18.5721 3.10352ZM26.0643 13.3438H27.6981V9.83008C27.7847 9.92578 27.8781 10.0146 27.9784 10.0967C28.0787 10.1787 28.1835 10.2516 28.2928 10.3154C28.4797 10.4202 28.6825 10.5 28.9012 10.5547C29.1246 10.6094 29.3684 10.6367 29.6327 10.6367C30.0975 10.6367 30.51 10.541 30.87 10.3496C31.23 10.1582 31.5331 9.89388 31.7792 9.55664C32.0253 9.22396 32.2098 8.82747 32.3329 8.36719C32.4605 7.9069 32.5243 7.41016 32.5243 6.87695V6.7334C32.5243 6.17741 32.4605 5.66927 32.3329 5.20898C32.2053 4.74414 32.0207 4.34538 31.7792 4.0127C31.5331 3.68001 31.2277 3.42253 30.8632 3.24023C30.5031 3.05794 30.0861 2.9668 29.6122 2.9668C29.3706 2.9668 29.1428 2.99414 28.9286 3.04883C28.7144 3.09896 28.5184 3.17188 28.3407 3.26758C28.204 3.34049 28.0764 3.42708 27.9579 3.52734C27.8394 3.6276 27.73 3.73926 27.6298 3.8623L27.5682 3.10352H26.0643V13.3438ZM30.8905 6.7334V6.87695C30.8905 7.20508 30.8586 7.51725 30.7948 7.81348C30.731 8.10514 30.6285 8.36491 30.4872 8.59277C30.3505 8.81608 30.1727 8.99382 29.954 9.12598C29.7398 9.25358 29.48 9.31738 29.1747 9.31738C28.9878 9.31738 28.8169 9.29688 28.662 9.25586C28.507 9.21029 28.368 9.15104 28.245 9.07812C28.1265 9.00065 28.0217 8.90951 27.9305 8.80469C27.8394 8.69987 27.7619 8.58366 27.6981 8.45605V5.16797C27.771 5.03125 27.8553 4.9082 27.951 4.79883C28.0513 4.68945 28.1675 4.59831 28.2997 4.52539C28.4136 4.45703 28.5435 4.40462 28.6893 4.36816C28.8352 4.33171 28.9924 4.31348 29.161 4.31348C29.4663 4.31348 29.7284 4.37728 29.9471 4.50488C30.1659 4.63249 30.3459 4.80566 30.4872 5.02441C30.6239 5.24316 30.7242 5.50065 30.788 5.79688C30.8563 6.08854 30.8905 6.40072 30.8905 6.7334ZM39.1825 10.5H40.8505V10.3838C40.7593 10.1924 40.6887 9.96452 40.6385 9.7002C40.593 9.43132 40.5702 9.13053 40.5702 8.79785V5.50977C40.5702 5.09049 40.4927 4.72135 40.3378 4.40234C40.1828 4.07878 39.9686 3.81217 39.6952 3.60254C39.4218 3.3929 39.0959 3.23568 38.7177 3.13086C38.344 3.02148 37.9406 2.9668 37.5077 2.9668C37.0246 2.9668 36.594 3.0306 36.2157 3.1582C35.842 3.28125 35.5275 3.44987 35.2723 3.66406C35.008 3.8737 34.8075 4.11523 34.6708 4.38867C34.5341 4.66211 34.4634 4.94694 34.4589 5.24316H36.0995C36.0995 5.10189 36.1246 4.96973 36.1747 4.84668C36.2294 4.71908 36.3114 4.61198 36.4208 4.52539C36.5302 4.42969 36.6669 4.35449 36.8309 4.2998C36.9996 4.24512 37.1955 4.21777 37.4188 4.21777C37.6649 4.21777 37.8814 4.24967 38.0682 4.31348C38.2596 4.37272 38.4214 4.45931 38.5536 4.57324C38.6766 4.68717 38.7701 4.82161 38.8339 4.97656C38.9022 5.13151 38.9364 5.30469 38.9364 5.49609V5.99512H37.7469C37.2137 5.99512 36.7352 6.04525 36.3114 6.14551C35.8921 6.24577 35.5389 6.3916 35.2518 6.58301C34.9419 6.78809 34.705 7.04785 34.5409 7.3623C34.3814 7.6722 34.3016 8.02995 34.3016 8.43555C34.3016 8.75 34.3632 9.04395 34.4862 9.31738C34.6138 9.58626 34.7915 9.81641 35.0194 10.0078C35.2427 10.2038 35.5116 10.3587 35.826 10.4727C36.1451 10.582 36.496 10.6367 36.8788 10.6367C37.1158 10.6367 37.3368 10.6139 37.5419 10.5684C37.7469 10.5228 37.9384 10.459 38.1161 10.377C38.2938 10.2995 38.4533 10.2083 38.5946 10.1035C38.7404 9.99414 38.8703 9.88021 38.9843 9.76172C39.007 9.90299 39.0321 10.0397 39.0594 10.1719C39.0913 10.2995 39.1324 10.4089 39.1825 10.5ZM37.1932 9.32422C36.9836 9.32422 36.8013 9.29915 36.6464 9.24902C36.4914 9.19434 36.3615 9.12142 36.2567 9.03027C36.1519 8.93913 36.0721 8.82975 36.0175 8.70215C35.9628 8.56999 35.9354 8.42871 35.9354 8.27832C35.9354 8.09603 35.9673 7.93197 36.0311 7.78613C36.0995 7.6403 36.202 7.51497 36.3387 7.41016C36.4937 7.28711 36.701 7.19368 36.9608 7.12988C37.2206 7.06152 37.5282 7.02734 37.8837 7.02734H38.9364V8.39453C38.8772 8.51302 38.7928 8.62695 38.6835 8.73633C38.5741 8.8457 38.4442 8.94368 38.2938 9.03027C38.1434 9.11686 37.9748 9.1875 37.788 9.24219C37.6057 9.29688 37.4074 9.32422 37.1932 9.32422ZM42.8671 10.5H44.5009V5.22266C44.5738 5.09961 44.6581 4.98568 44.7538 4.88086C44.8495 4.77604 44.952 4.68717 45.0614 4.61426C45.2027 4.51855 45.3599 4.44564 45.5331 4.39551C45.7063 4.34082 45.8931 4.31348 46.0936 4.31348C46.3352 4.31348 46.5494 4.34082 46.7362 4.39551C46.9231 4.44564 47.0826 4.53223 47.2147 4.65527C47.3469 4.77832 47.4471 4.94238 47.5155 5.14746C47.5839 5.35254 47.618 5.60775 47.618 5.91309V10.5H49.2518V5.88574C49.2518 5.36621 49.1903 4.92415 49.0673 4.55957C48.9442 4.19043 48.771 3.88737 48.5477 3.65039C48.3244 3.41341 48.0555 3.24023 47.7411 3.13086C47.4266 3.02148 47.0803 2.9668 46.702 2.9668C46.4149 2.9668 46.1415 3.00781 45.8817 3.08984C45.6219 3.17188 45.3827 3.28809 45.1639 3.43848C45.0272 3.53418 44.8973 3.64355 44.7743 3.7666C44.6558 3.88509 44.5464 4.01497 44.4462 4.15625L44.3436 3.10352H42.8671V10.5ZM52.205 13.4873C52.565 13.4873 52.8794 13.4235 53.1483 13.2959C53.4172 13.1729 53.6496 13.0179 53.8456 12.8311C54.0415 12.6488 54.2033 12.4482 54.3309 12.2295C54.4631 12.0153 54.5725 11.8125 54.6591 11.6211L58.412 3.10352H56.6005L54.8163 7.64258L54.5087 8.43555L54.2557 7.62207L52.4169 3.10352H50.619L53.7704 10.1719L53.3055 11.0537C53.2554 11.154 53.2007 11.2497 53.1415 11.3408C53.0868 11.432 53.0139 11.5368 52.9227 11.6553C52.827 11.7738 52.7154 11.8786 52.5878 11.9697C52.4602 12.0654 52.3166 12.1133 52.1571 12.1133C52.0842 12.1133 51.9885 12.1087 51.87 12.0996C51.7561 12.0951 51.6535 12.0905 51.5624 12.0859L51.3368 13.3643C51.469 13.3962 51.6057 13.4235 51.7469 13.4463C51.8928 13.4736 52.0455 13.4873 52.205 13.4873ZM66.0682 10.5V0.546875H64.4139L64.4003 7.36914L61.1874 0.546875H59.5194V10.5H61.1805L61.1874 3.65039L64.4208 10.5H66.0682ZM72.8153 10.5H74.4833V10.3838C74.3921 10.1924 74.3215 9.96452 74.2714 9.7002C74.2258 9.43132 74.203 9.13053 74.203 8.79785V5.50977C74.203 5.09049 74.1255 4.72135 73.9706 4.40234C73.8156 4.07878 73.6014 3.81217 73.328 3.60254C73.0546 3.3929 72.7287 3.23568 72.3505 3.13086C71.9768 3.02148 71.5734 2.9668 71.1405 2.9668C70.6574 2.9668 70.2268 3.0306 69.8485 3.1582C69.4748 3.28125 69.1604 3.44987 68.9052 3.66406C68.6408 3.8737 68.4403 4.11523 68.3036 4.38867C68.1669 4.66211 68.0962 4.94694 68.0917 5.24316H69.7323C69.7323 5.10189 69.7574 4.96973 69.8075 4.84668C69.8622 4.71908 69.9442 4.61198 70.0536 4.52539C70.163 4.42969 70.2997 4.35449 70.4637 4.2998C70.6324 4.24512 70.8283 4.21777 71.0516 4.21777C71.2977 4.21777 71.5142 4.24967 71.701 4.31348C71.8925 4.37272 72.0542 4.45931 72.1864 4.57324C72.3094 4.68717 72.4029 4.82161 72.4667 4.97656C72.535 5.13151 72.5692 5.30469 72.5692 5.49609V5.99512H71.3798C70.8466 5.99512 70.368 6.04525 69.9442 6.14551C69.5249 6.24577 69.1718 6.3916 68.8846 6.58301C68.5747 6.78809 68.3378 7.04785 68.1737 7.3623C68.0142 7.6722 67.9344 8.02995 67.9344 8.43555C67.9344 8.75 67.996 9.04395 68.119 9.31738C68.2466 9.58626 68.4244 9.81641 68.6522 10.0078C68.8755 10.2038 69.1444 10.3587 69.4589 10.4727C69.7779 10.582 70.1288 10.6367 70.5116 10.6367C70.7486 10.6367 70.9696 10.6139 71.1747 10.5684C71.3798 10.5228 71.5712 10.459 71.7489 10.377C71.9266 10.2995 72.0861 10.2083 72.2274 10.1035C72.3733 9.99414 72.5031 9.88021 72.6171 9.76172C72.6399 9.90299 72.6649 10.0397 72.6923 10.1719C72.7242 10.2995 72.7652 10.4089 72.8153 10.5ZM70.826 9.32422C70.6164 9.32422 70.4341 9.29915 70.2792 9.24902C70.1242 9.19434 69.9943 9.12142 69.8895 9.03027C69.7847 8.93913 69.705 8.82975 69.6503 8.70215C69.5956 8.56999 69.5682 8.42871 69.5682 8.27832C69.5682 8.09603 69.6001 7.93197 69.6639 7.78613C69.7323 7.6403 69.8348 7.51497 69.9716 7.41016C70.1265 7.28711 70.3339 7.19368 70.5936 7.12988C70.8534 7.06152 71.161 7.02734 71.5165 7.02734H72.5692V8.39453C72.51 8.51302 72.4257 8.62695 72.3163 8.73633C72.2069 8.8457 72.077 8.94368 71.9266 9.03027C71.7762 9.11686 71.6076 9.1875 71.4208 9.24219C71.2385 9.29688 71.0402 9.32422 70.826 9.32422ZM77.4296 3.10352H76.0077V10.5H77.5116V4.81934C77.5389 4.75098 77.5686 4.68945 77.6005 4.63477C77.6369 4.58008 77.6779 4.53223 77.7235 4.49121C77.7828 4.43197 77.8534 4.38867 77.9354 4.36133C78.022 4.32943 78.12 4.31348 78.2294 4.31348C78.3296 4.31348 78.4185 4.32715 78.496 4.35449C78.578 4.38184 78.6486 4.42513 78.7079 4.48438C78.7671 4.54362 78.8104 4.62565 78.8378 4.73047C78.8697 4.83073 78.8856 4.95378 78.8856 5.09961V10.5H80.3622V5.01074C80.3622 4.96517 80.3622 4.93099 80.3622 4.9082C80.3622 4.88086 80.3622 4.85807 80.3622 4.83984C80.3804 4.76237 80.4078 4.69401 80.4442 4.63477C80.4807 4.57096 80.5262 4.51628 80.5809 4.4707C80.6402 4.42057 80.7085 4.38184 80.786 4.35449C80.8635 4.32715 80.9546 4.31348 81.0594 4.31348C81.1597 4.31348 81.2509 4.32715 81.3329 4.35449C81.4195 4.38184 81.4924 4.42513 81.5516 4.48438C81.6109 4.54818 81.6565 4.63249 81.6884 4.7373C81.7203 4.83757 81.7362 4.96061 81.7362 5.10645V10.5H83.2401V5.12012C83.2401 4.73275 83.1991 4.40234 83.1171 4.12891C83.0396 3.85091 82.9279 3.62533 82.7821 3.45215C82.6363 3.28809 82.4631 3.16732 82.2626 3.08984C82.0666 3.00781 81.8501 2.9668 81.6132 2.9668C81.4309 2.9668 81.2622 2.98958 81.1073 3.03516C80.9569 3.08073 80.8202 3.14453 80.6971 3.22656C80.6014 3.29036 80.5126 3.36784 80.4305 3.45898C80.3485 3.55013 80.2756 3.64811 80.2118 3.75293C80.1662 3.639 80.1115 3.53874 80.0477 3.45215C79.9839 3.361 79.911 3.28353 79.829 3.21973C79.7242 3.13314 79.5988 3.06934 79.453 3.02832C79.3072 2.9873 79.1431 2.9668 78.9608 2.9668C78.6099 2.9668 78.3091 3.05111 78.0585 3.21973C77.8124 3.38835 77.6187 3.62077 77.4774 3.91699L77.4296 3.10352ZM88.3602 10.6367C89.0803 10.6367 89.6932 10.4954 90.1991 10.2129C90.7095 9.93034 91.0878 9.61133 91.3339 9.25586L90.4589 8.4082C90.231 8.69987 89.9416 8.92546 89.5907 9.08496C89.2398 9.23991 88.8615 9.31738 88.4559 9.31738C88.1597 9.31738 87.8863 9.26725 87.6356 9.16699C87.3895 9.06673 87.1753 8.92546 86.993 8.74316C86.8108 8.56999 86.6672 8.37402 86.5624 8.15527C86.4576 7.93652 86.3801 7.66536 86.33 7.3418V7.30762H91.4569V6.60352C91.4569 6.07487 91.3863 5.58724 91.245 5.14062C91.1037 4.69401 90.8941 4.30892 90.6161 3.98535C90.3381 3.66634 89.994 3.41797 89.5839 3.24023C89.1737 3.05794 88.702 2.9668 88.1688 2.9668C87.6903 2.9668 87.2391 3.05794 86.8153 3.24023C86.396 3.41797 86.0269 3.67318 85.7079 4.00586C85.3889 4.33854 85.1382 4.73958 84.9559 5.20898C84.7736 5.67839 84.6825 6.20247 84.6825 6.78125V7.06152C84.6825 7.56738 84.7691 8.03906 84.9423 8.47656C85.12 8.90951 85.3706 9.28548 85.6942 9.60449C86.0178 9.92806 86.4052 10.181 86.8563 10.3633C87.3121 10.5456 87.8134 10.6367 88.3602 10.6367ZM88.162 4.29297C88.4354 4.29297 88.6747 4.34082 88.8798 4.43652C89.0894 4.52767 89.2626 4.65072 89.3993 4.80566C89.5406 4.96517 89.6499 5.15202 89.7274 5.36621C89.8049 5.57585 89.8436 5.78776 89.8436 6.00195V6.11133H86.3641C86.4143 5.82878 86.4917 5.57585 86.5966 5.35254C86.7014 5.12923 86.8313 4.93783 86.9862 4.77832C87.1412 4.62337 87.3166 4.50488 87.5126 4.42285C87.7131 4.33626 87.9296 4.29297 88.162 4.29297Z" fill="white"/>
</svg>
