<?xml version="1.0" encoding="UTF-8"?>
<svg xmlns="http://www.w3.org/2000/svg" xmlns:xlink="http://www.w3.org/1999/xlink" width="px" height="px" viewBox="0 0 101 16" version="1.1">
<g id="surface1">
<path style=" stroke:none;fill-rule:nonzero;fill:rgb(8.627451%,7.843137%,7.45098%);fill-opacity:1;" d="M 46.207031 13.242188 C 45.574219 13.367188 44.886719 13.285156 44.339844 12.933594 C 43.695312 12.542969 43.269531 11.839844 43.1875 11.09375 C 43.175781 10.941406 43.175781 10.789062 43.183594 10.636719 C 43.277344 9.777344 43.921875 8.992188 44.769531 8.792969 C 45.808594 9.941406 46.851562 11.089844 47.898438 12.234375 C 47.472656 12.75 46.863281 13.109375 46.207031 13.242188 Z M 50.910156 11.785156 C 50.945312 11.3125 50.980469 10.835938 51.128906 10.386719 C 51.308594 9.816406 51.621094 9.226562 52.183594 8.960938 C 52.296875 8.925781 52.417969 8.902344 52.535156 8.890625 C 52.535156 8.78125 52.53125 8.671875 52.558594 8.566406 C 52.523438 8.417969 52.570312 8.265625 52.554688 8.113281 C 52.53125 7.886719 52.535156 7.660156 52.542969 7.433594 C 52.558594 7.152344 52.519531 6.863281 52.558594 6.582031 C 52.539062 6.511719 52.535156 6.4375 52.535156 6.367188 C 51.839844 6.359375 51.144531 6.554688 50.542969 6.90625 C 49.640625 7.4375 48.957031 8.34375 48.71875 9.371094 C 47.371094 7.914062 46.050781 6.433594 44.707031 4.972656 C 44.421875 4.652344 44.296875 4.203125 44.351562 3.777344 C 44.4375 3.320312 44.726562 2.894531 45.148438 2.683594 C 45.429688 2.53125 45.761719 2.503906 46.078125 2.546875 C 46.5625 2.625 46.980469 2.96875 47.175781 3.417969 C 47.925781 3.027344 48.6875 2.667969 49.433594 2.269531 C 49.304688 2.027344 49.167969 1.785156 49 1.570312 C 48.257812 0.582031 47.039062 -0.03125 45.800781 0 C 44.371094 -0.0273438 42.980469 0.816406 42.308594 2.078125 C 41.882812 2.851562 41.722656 3.773438 41.871094 4.648438 C 42 5.460938 42.390625 6.230469 42.96875 6.816406 C 42.296875 7.214844 41.722656 7.777344 41.320312 8.449219 C 40.859375 9.210938 40.628906 10.109375 40.65625 11.003906 C 40.683594 11.882812 40.945312 12.757812 41.414062 13.5 C 42.117188 14.632812 43.292969 15.457031 44.597656 15.722656 C 45.261719 15.863281 45.949219 15.855469 46.617188 15.746094 C 47.753906 15.535156 48.8125 14.953125 49.617188 14.121094 C 49.953125 14.507812 50.308594 14.882812 50.648438 15.261719 C 51.789062 15.261719 52.929688 15.269531 54.070312 15.261719 C 53.011719 14.105469 51.960938 12.945312 50.910156 11.785156 "/>
<path style=" stroke:none;fill-rule:nonzero;fill:rgb(8.627451%,7.843137%,7.45098%);fill-opacity:1;" d="M 5.628906 8.191406 C 5.203125 8.648438 4.601562 8.910156 3.984375 8.980469 C 3.539062 8.996094 3.097656 8.984375 2.652344 8.988281 L 2.652344 2.847656 C 3.175781 2.863281 3.703125 2.804688 4.214844 2.933594 C 4.828125 3.070312 5.402344 3.40625 5.800781 3.898438 C 6.785156 5.113281 6.710938 7.0625 5.628906 8.191406 Z M 8.953125 4.582031 C 8.671875 3.34375 7.96875 2.195312 6.949219 1.433594 C 5.972656 0.695312 4.746094 0.335938 3.53125 0.332031 C 2.351562 0.332031 1.175781 0.332031 0 0.332031 C 0 5.308594 0 10.285156 0 15.261719 L 2.652344 15.261719 C 2.652344 14.015625 2.652344 12.769531 2.652344 11.523438 C 3.289062 11.511719 3.929688 11.5625 4.558594 11.464844 C 5.59375 11.320312 6.578125 10.847656 7.332031 10.125 C 8.34375 9.167969 8.957031 7.824219 9.085938 6.441406 C 9.117188 5.820312 9.105469 5.191406 8.953125 4.582031 "/>
<path style=" stroke:none;fill-rule:nonzero;fill:rgb(8.627451%,7.843137%,7.45098%);fill-opacity:1;" d="M 19.554688 0.332031 C 20.449219 0.332031 21.339844 0.332031 22.234375 0.332031 C 22.238281 0.414062 22.242188 0.496094 22.246094 0.582031 C 22.242188 0.746094 22.246094 0.910156 22.242188 1.078125 C 22.246094 1.242188 22.246094 1.40625 22.242188 1.574219 C 22.242188 1.8125 22.246094 2.054688 22.242188 2.292969 C 22.246094 2.371094 22.246094 2.445312 22.246094 2.519531 C 22.234375 2.882812 22.25 3.242188 22.242188 3.601562 C 22.246094 4.097656 22.234375 4.59375 22.242188 5.089844 C 22.246094 5.859375 22.246094 6.625 22.242188 7.394531 C 22.246094 7.527344 22.242188 7.664062 22.246094 7.796875 C 22.234375 7.964844 22.234375 8.128906 22.246094 8.296875 C 22.242188 8.414062 22.246094 8.535156 22.246094 8.65625 C 22.226562 9.179688 22.269531 9.703125 22.214844 10.226562 C 22.136719 11.132812 21.890625 12.027344 21.441406 12.816406 C 20.984375 13.636719 20.300781 14.324219 19.488281 14.785156 C 18.578125 15.300781 17.523438 15.535156 16.484375 15.535156 C 15.324219 15.550781 14.148438 15.273438 13.164062 14.644531 C 12.21875 14.046875 11.488281 13.128906 11.085938 12.085938 C 10.753906 11.242188 10.625 10.328125 10.628906 9.421875 C 10.628906 6.390625 10.628906 3.363281 10.628906 0.332031 C 11.527344 0.332031 12.429688 0.332031 13.328125 0.332031 C 13.328125 3.421875 13.328125 6.515625 13.328125 9.605469 C 13.355469 10.472656 13.539062 11.390625 14.117188 12.0625 C 14.59375 12.625 15.316406 12.925781 16.035156 12.984375 C 16.789062 13.058594 17.59375 12.957031 18.242188 12.542969 C 18.761719 12.214844 19.121094 11.675781 19.308594 11.09375 C 19.457031 10.675781 19.507812 10.230469 19.546875 9.789062 C 19.570312 8.707031 19.546875 7.621094 19.554688 6.535156 C 19.554688 4.46875 19.554688 2.398438 19.554688 0.332031 "/>
<path style=" stroke:none;fill-rule:nonzero;fill:rgb(8.627451%,7.843137%,7.45098%);fill-opacity:1;" d="M 32.390625 0.335938 C 33.285156 0.328125 34.175781 0.332031 35.070312 0.332031 C 35.070312 4.453125 35.070312 8.570312 35.070312 12.691406 C 36.597656 12.691406 38.125 12.683594 39.652344 12.691406 C 39.652344 13.546875 39.652344 14.40625 39.652344 15.261719 C 37.234375 15.265625 34.8125 15.265625 32.390625 15.261719 C 32.390625 10.285156 32.390625 5.308594 32.390625 0.335938 "/>
<path style=" stroke:none;fill-rule:nonzero;fill:rgb(8.627451%,7.843137%,7.45098%);fill-opacity:1;" d="M 61.957031 11.277344 C 61.890625 11.628906 61.699219 11.964844 61.414062 12.183594 C 61.074219 12.457031 60.652344 12.589844 60.230469 12.667969 C 59.425781 12.800781 58.605469 12.730469 57.792969 12.75 C 57.792969 11.453125 57.792969 10.15625 57.792969 8.863281 C 58.398438 8.867188 59.003906 8.851562 59.613281 8.871094 C 60.199219 8.910156 60.8125 9 61.3125 9.335938 C 61.664062 9.5625 61.902344 9.949219 61.964844 10.363281 C 62.011719 10.667969 62.007812 10.976562 61.957031 11.277344 Z M 57.792969 2.765625 C 58.386719 2.773438 58.988281 2.734375 59.582031 2.835938 C 60.003906 2.914062 60.4375 3.082031 60.726562 3.421875 C 60.996094 3.746094 61.085938 4.183594 61.074219 4.597656 C 61.085938 5.066406 60.929688 5.5625 60.574219 5.882812 C 60.199219 6.214844 59.6875 6.34375 59.199219 6.378906 C 58.730469 6.390625 58.261719 6.378906 57.792969 6.382812 C 57.792969 5.175781 57.792969 3.972656 57.792969 2.765625 Z M 64.316406 8.945312 C 63.953125 8.183594 63.300781 7.578125 62.546875 7.210938 C 62.550781 7.203125 62.554688 7.179688 62.554688 7.167969 C 63.105469 6.6875 63.503906 6.03125 63.65625 5.316406 C 63.773438 4.796875 63.746094 4.257812 63.664062 3.734375 C 63.558594 3.222656 63.367188 2.726562 63.078125 2.292969 C 62.660156 1.664062 62.066406 1.15625 61.386719 0.828125 C 60.84375 0.574219 60.246094 0.464844 59.65625 0.394531 C 59.296875 0.367188 58.9375 0.339844 58.578125 0.332031 C 57.425781 0.328125 56.277344 0.332031 55.125 0.332031 C 55.125 5.308594 55.125 10.285156 55.125 15.261719 C 56.816406 15.253906 58.507812 15.28125 60.195312 15.25 C 61.398438 15.152344 62.59375 14.6875 63.460938 13.832031 C 64.132812 13.191406 64.585938 12.316406 64.699219 11.390625 C 64.78125 10.5625 64.683594 9.699219 64.316406 8.945312 "/>
<path style=" stroke:none;fill-rule:nonzero;fill:rgb(8.627451%,7.843137%,7.45098%);fill-opacity:1;" d="M 66.140625 0.332031 C 69.191406 0.332031 72.238281 0.332031 75.285156 0.332031 C 75.285156 1.171875 75.289062 2.011719 75.285156 2.847656 C 73.128906 2.851562 70.972656 2.84375 68.816406 2.851562 C 68.816406 4.027344 68.816406 5.203125 68.816406 6.378906 C 70.863281 6.386719 72.910156 6.382812 74.953125 6.382812 C 74.957031 7.210938 74.953125 8.035156 74.957031 8.863281 C 72.910156 8.863281 70.863281 8.859375 68.816406 8.863281 C 68.816406 10.15625 68.816406 11.453125 68.816406 12.746094 C 70.972656 12.753906 73.128906 12.746094 75.285156 12.75 C 75.289062 13.585938 75.285156 14.425781 75.285156 15.261719 C 72.238281 15.261719 69.191406 15.261719 66.140625 15.261719 C 66.140625 10.285156 66.140625 5.308594 66.140625 0.332031 "/>
<path style=" stroke:none;fill-rule:nonzero;fill:rgb(8.627451%,7.843137%,7.45098%);fill-opacity:1;" d="M 81.34375 8.851562 C 81.9375 7.351562 82.539062 5.851562 83.128906 4.347656 C 83.722656 5.847656 84.308594 7.351562 84.910156 8.851562 C 83.71875 8.855469 82.53125 8.855469 81.34375 8.851562 Z M 84.195312 0.367188 C 84.179688 0.285156 84.085938 0.304688 84.03125 0.300781 C 83.425781 0.300781 82.824219 0.300781 82.222656 0.300781 C 82.164062 0.308594 82.078125 0.285156 82.050781 0.347656 C 80.03125 5.320312 78.007812 10.289062 75.988281 15.261719 C 76.945312 15.265625 77.90625 15.261719 78.867188 15.261719 C 79.367188 13.96875 79.867188 12.671875 80.371094 11.378906 C 82.207031 11.378906 84.042969 11.378906 85.878906 11.378906 C 86.378906 12.675781 86.875 13.972656 87.378906 15.265625 C 88.402344 15.261719 89.425781 15.265625 90.449219 15.261719 C 88.363281 10.296875 86.277344 5.332031 84.195312 0.367188 "/>
<path style=" stroke:none;fill-rule:nonzero;fill:rgb(8.627451%,7.843137%,7.45098%);fill-opacity:1;" d="M 97.601562 5.90625 C 97.464844 6.390625 97.140625 6.820312 96.707031 7.078125 C 96.078125 7.457031 95.320312 7.550781 94.59375 7.550781 C 94.3125 7.550781 94.035156 7.550781 93.753906 7.550781 C 93.753906 5.984375 93.753906 4.417969 93.753906 2.847656 C 94.515625 2.851562 95.292969 2.804688 96.035156 3.007812 C 96.355469 3.101562 96.675781 3.226562 96.945312 3.425781 C 97.292969 3.671875 97.535156 4.046875 97.640625 4.457031 C 97.753906 4.933594 97.734375 5.4375 97.601562 5.90625 Z M 99.839844 12.824219 C 99.214844 11.636719 98.613281 10.429688 98.066406 9.203125 C 98.496094 8.960938 98.894531 8.660156 99.234375 8.300781 C 99.667969 7.859375 99.976562 7.308594 100.179688 6.726562 C 100.601562 5.410156 100.554688 3.898438 99.867188 2.683594 C 99.554688 2.132812 99.105469 1.664062 98.578125 1.316406 C 97.78125 0.785156 96.839844 0.519531 95.902344 0.394531 C 95.570312 0.367188 95.242188 0.328125 94.910156 0.332031 C 93.632812 0.332031 92.355469 0.328125 91.074219 0.332031 C 91.078125 5.308594 91.078125 10.285156 91.074219 15.261719 C 91.96875 15.265625 92.859375 15.265625 93.753906 15.261719 C 93.753906 13.589844 93.753906 11.917969 93.753906 10.246094 C 93.839844 10.246094 93.925781 10.246094 94.011719 10.242188 C 94.230469 10.210938 94.453125 10.222656 94.675781 10.195312 C 94.902344 10.175781 95.125 10.128906 95.355469 10.117188 C 95.449219 10.367188 95.574219 10.605469 95.683594 10.847656 C 96.375 12.347656 97.125 13.816406 97.925781 15.261719 C 99.035156 15.265625 100.144531 15.265625 101.253906 15.261719 C 100.75 14.46875 100.285156 13.652344 99.839844 12.824219 "/>
<path style=" stroke:none;fill-rule:nonzero;fill:rgb(8.627451%,7.843137%,7.45098%);fill-opacity:1;" d="M 24.046875 0.332031 C 24.9375 0.332031 25.828125 0.332031 26.722656 0.332031 C 26.722656 4.449219 26.71875 8.570312 26.722656 12.691406 C 28.246094 12.691406 29.773438 12.691406 31.300781 12.691406 C 31.300781 13.546875 31.300781 14.40625 31.300781 15.261719 C 28.882812 15.261719 26.464844 15.261719 24.046875 15.261719 C 24.046875 10.285156 24.046875 5.308594 24.046875 0.332031 "/>
</g>
</svg>
