<?xml version="1.0" encoding="UTF-8"?>
<svg xmlns="http://www.w3.org/2000/svg" xmlns:xlink="http://www.w3.org/1999/xlink" width="px" height="px" viewBox="0 0 147 30" version="1.1">
<g id="surface1">
<path style=" stroke:none;fill-rule:nonzero;fill:rgb(20%,20%,20%);fill-opacity:1;" d="M 51.066406 25.519531 L 50.976562 23.121094 C 50.929688 21.800781 50.828125 18.738281 50.828125 18.738281 C 50.769531 16.847656 50.382812 15.433594 48.511719 14.925781 L 48.511719 14.835938 C 50.085938 14.203125 51.183594 12.433594 51.183594 10.035156 C 51.183594 6.25 49.402344 4.511719 45.957031 4.511719 L 40.671875 4.511719 L 40.671875 25.519531 L 44.054688 25.519531 L 44.054688 16.875 L 45.691406 16.875 C 47.027344 16.875 47.5 17.6875 47.53125 19.097656 L 47.652344 23.421875 C 47.667969 24.121094 47.675781 24.820312 47.679688 25.519531 Z M 47.710938 11.714844 C 47.679688 12.945312 47.265625 14.234375 45.660156 14.234375 L 44.054688 14.234375 L 44.054688 7.570312 L 45.6875 7.570312 C 47.203125 7.570312 47.769531 8.921875 47.738281 10.0625 Z M 147.558594 25.519531 L 147.558594 22.398438 L 142.121094 22.398438 L 142.121094 16.15625 L 146.546875 16.15625 L 146.546875 13.035156 L 142.121094 13.035156 L 142.121094 7.632812 L 147.558594 7.632812 L 147.558594 4.511719 L 138.734375 4.511719 L 138.734375 25.519531 Z M 136.765625 25.519531 L 136.765625 22.398438 L 131.332031 22.398438 L 131.332031 4.511719 L 127.945312 4.511719 L 127.945312 25.519531 Z M 121.277344 25.519531 C 123.742188 25.519531 125.882812 23.71875 125.882812 19.546875 C 125.882812 17.085938 124.664062 15.375 123.027344 14.804688 L 123.027344 14.6875 C 124.722656 13.964844 125.761719 12.226562 125.761719 9.914062 C 125.761719 6.011719 123.859375 4.511719 120.980469 4.511719 L 115.246094 4.511719 L 115.246094 25.519531 Z M 122.226562 11.234375 C 122.199219 12.734375 121.214844 13.425781 120.324219 13.425781 L 118.601562 13.425781 L 118.601562 7.570312 L 120.265625 7.570312 C 121.691406 7.570312 122.285156 8.261719 122.257812 9.941406 Z M 122.40625 19.9375 C 122.40625 21.617188 121.722656 22.488281 120.238281 22.488281 L 118.601562 22.488281 L 118.601562 16.183594 L 120.148438 16.183594 C 121.574219 16.183594 122.40625 17.207031 122.40625 18.585938 Z M 108.566406 25.519531 C 111.03125 25.519531 113.171875 23.71875 113.171875 19.546875 C 113.171875 17.085938 111.953125 15.375 110.320312 14.804688 L 110.320312 14.6875 C 112.011719 13.964844 113.050781 12.226562 113.050781 9.914062 C 113.050781 6.011719 111.152344 4.511719 108.269531 4.511719 L 102.535156 4.511719 L 102.535156 25.519531 Z M 109.519531 11.234375 C 109.488281 12.734375 108.507812 13.425781 107.617188 13.425781 L 105.894531 13.425781 L 105.894531 7.570312 L 107.554688 7.570312 C 108.980469 7.570312 109.578125 8.261719 109.546875 9.941406 L 109.515625 11.234375 Z M 109.695312 19.9375 C 109.695312 21.617188 109.011719 22.488281 107.527344 22.488281 L 105.894531 22.488281 L 105.894531 16.183594 L 107.4375 16.183594 C 108.863281 16.183594 109.695312 17.207031 109.695312 18.585938 Z M 94.992188 25.910156 C 98.585938 25.910156 100.128906 23.539062 100.128906 20.269531 L 100.128906 4.511719 L 96.921875 4.511719 L 96.921875 20.175781 C 96.921875 21.5 96.59375 22.820312 95.078125 22.820312 C 93.476562 22.820312 93.175781 21.289062 93.175781 20.238281 L 93.175781 4.511719 L 89.792969 4.511719 L 89.792969 20.507812 C 89.792969 24.140625 91.691406 25.910156 94.988281 25.910156 Z M 83.34375 25.519531 C 85.8125 25.519531 87.949219 23.71875 87.949219 19.550781 C 87.949219 17.085938 86.730469 15.375 85.097656 14.804688 L 85.097656 14.6875 C 86.789062 13.964844 87.832031 12.226562 87.832031 9.914062 C 87.832031 6.011719 85.929688 4.511719 83.046875 4.511719 L 77.3125 4.511719 L 77.3125 25.519531 Z M 84.296875 11.234375 C 84.265625 12.734375 83.285156 13.425781 82.394531 13.425781 L 80.671875 13.425781 L 80.671875 7.574219 L 82.335938 7.574219 C 83.761719 7.574219 84.355469 8.261719 84.324219 9.945312 Z M 84.472656 19.9375 C 84.472656 21.621094 83.789062 22.492188 82.304688 22.492188 L 80.671875 22.492188 L 80.671875 16.1875 L 82.214844 16.1875 C 83.640625 16.1875 84.472656 17.207031 84.472656 18.589844 Z M 70.035156 25.523438 C 73.125 25.523438 74.847656 23.902344 74.847656 20.480469 L 74.847656 9.433594 C 74.847656 6.101562 73.097656 4.507812 69.945312 4.507812 L 64.390625 4.507812 L 64.390625 25.519531 L 70.035156 25.519531 Z M 71.433594 20.328125 C 71.433594 21.648438 71.015625 22.429688 69.351562 22.429688 L 67.777344 22.429688 L 67.777344 7.601562 L 69.382812 7.601562 C 71.046875 7.601562 71.460938 8.59375 71.460938 9.703125 Z M 53.398438 25.519531 L 53.398438 4.511719 L 62.222656 4.511719 L 62.222656 7.632812 L 56.785156 7.632812 L 56.785156 13.035156 L 61.210938 13.035156 L 61.210938 16.15625 L 56.785156 16.15625 L 56.785156 22.398438 L 62.222656 22.398438 L 62.222656 25.519531 Z M 53.398438 25.519531 "/>
<path style=" stroke:none;fill-rule:nonzero;fill:rgb(89.411765%,7.45098%,12.941176%);fill-opacity:1;" d="M 20.609375 20.417969 L 16.636719 20.417969 C 16.414062 20.417969 16.238281 20.238281 16.238281 20.015625 L 16.238281 9.988281 C 16.238281 9.765625 16.414062 9.585938 16.636719 9.585938 L 20.320312 9.585938 C 23.085938 9.585938 23.667969 11.222656 23.667969 12.597656 C 23.667969 13.390625 23.457031 14.019531 23.042969 14.484375 C 24.054688 14.902344 24.601562 15.851562 24.601562 17.222656 C 24.601562 19.226562 23.109375 20.417969 20.609375 20.417969 M 14.839844 20.417969 L 6.582031 20.417969 C 6.476562 20.417969 6.375 20.375 6.300781 20.300781 C 6.226562 20.226562 6.183594 20.121094 6.183594 20.015625 L 6.183594 9.988281 C 6.183594 9.765625 6.363281 9.585938 6.582031 9.585938 L 10.4375 9.585938 C 12.847656 9.585938 14.285156 10.890625 14.285156 13.074219 C 14.285156 14.527344 13.558594 15.667969 12.386719 16.132812 L 15.136719 19.75 C 15.238281 19.871094 15.261719 20.035156 15.199219 20.179688 C 15.136719 20.324219 14.992188 20.417969 14.835938 20.417969 M 14.851562 0.0273438 C 6.617188 0.0273438 -0.0625 6.738281 -0.0625 15.015625 C -0.0625 23.296875 6.617188 30.007812 14.851562 30.007812 C 23.089844 30.007812 29.765625 23.296875 29.765625 15.019531 C 29.765625 6.738281 23.089844 0.0273438 14.855469 0.0273438 "/>
</g>
</svg>
