<?xml version="1.0" encoding="UTF-8"?>
<svg xmlns="http://www.w3.org/2000/svg" xmlns:xlink="http://www.w3.org/1999/xlink" width="150px" height="150px" viewBox="0 0 81 26" version="1.1">
<g id="surface1">
<path style=" stroke:none;fill-rule:nonzero;fill:rgb(81.960784%,21.176471%,22.352941%);fill-opacity:1;" d="M 13.105469 23.546875 L 11.929688 20.503906 L 23.269531 21.097656 L 22.753906 26 Z M 15.832031 0 L 0 7.578125 L 2.429688 18.941406 L 5.671875 18.941406 L 5.15625 10.769531 L 5.597656 10.621094 L 7.585938 18.941406 L 10.898438 18.941406 L 10.824219 8.988281 L 11.265625 8.839844 L 12.960938 18.941406 L 16.566406 18.941406 L 17.378906 6.984375 L 17.894531 6.761719 L 18.777344 18.941406 L 23.417969 18.941406 L 25.109375 2.304688 Z M 78.347656 23.175781 L 73.855469 22.433594 L 73.855469 21.839844 L 78.203125 21.691406 L 78.128906 20.578125 L 72.605469 20.578125 L 72.3125 23.398438 L 76.875 24.21875 L 76.875 24.738281 L 72.089844 24.960938 L 71.941406 26 L 78.644531 26 Z M 35.34375 22.730469 L 35.273438 23.769531 L 36.890625 23.847656 L 36.890625 24.886719 L 33.429688 24.8125 L 33.578125 21.765625 L 38.289062 21.691406 L 38.21875 20.578125 L 32.105469 20.578125 L 31.589844 26 L 38.511719 26 L 38.363281 22.65625 Z M 64.726562 24.738281 L 64.726562 23.769531 L 67.964844 23.695312 L 67.964844 22.65625 L 64.652344 22.582031 L 64.652344 21.617188 L 68.996094 21.542969 L 68.996094 20.429688 L 63.105469 20.429688 L 62.960938 26 L 69.144531 26 L 69.070312 24.886719 Z M 60.011719 26 L 59.425781 20.503906 L 57.878906 20.503906 L 55.59375 23.101562 L 53.3125 20.503906 L 51.765625 20.503906 L 51.25 26 L 53.09375 26 L 53.238281 22.433594 L 55.59375 24.886719 L 57.953125 22.433594 L 58.097656 26 Z M 52.207031 0.371094 L 48.527344 0.371094 L 48.230469 17.382812 L 52.648438 17.382812 Z M 67.230469 0.371094 L 55.742188 0.371094 L 55.300781 17.382812 L 68.039062 17.382812 Z M 63.695312 13.667969 L 59.644531 13.816406 L 59.425781 3.789062 L 63.695312 3.9375 Z M 81 4.085938 L 80.558594 0.371094 L 69.21875 0.371094 L 69.367188 3.640625 L 72.972656 3.789062 L 73.34375 17.382812 L 77.832031 17.382812 L 76.507812 3.9375 Z M 41.308594 17.382812 L 46.171875 17.382812 L 43.003906 9.730469 L 45.507812 8.320312 L 43.8125 0.371094 L 31.441406 0.371094 L 31 4.085938 L 33.800781 4.011719 L 32.472656 17.457031 L 36.816406 17.457031 L 36.964844 13.148438 L 40.058594 11.441406 Z M 37.1875 3.789062 L 40.722656 3.714844 L 41.164062 7.132812 L 37.039062 9.0625 Z M 46.757812 26 L 48.601562 26 L 47.128906 20.503906 L 42.710938 20.503906 L 41.238281 26 L 43.078125 26 L 43.371094 24.589844 L 46.390625 24.664062 Z M 43.667969 23.546875 L 44.035156 21.765625 L 45.800781 21.691406 L 46.171875 23.472656 Z M 43.667969 23.546875 "/>
</g>
</svg>
