<?xml version="1.0" encoding="UTF-8"?>
<svg xmlns="http://www.w3.org/2000/svg" xmlns:xlink="http://www.w3.org/1999/xlink" width="px" height="px" viewBox="0 0 571 87" version="1.1">
<g id="surface1">
<path style=" stroke:none;fill-rule:nonzero;fill:rgb(92.941176%,15.294118%,38.039216%);fill-opacity:1;" d="M 119.410156 11.0625 C 113.585938 11.0625 108.847656 15.714844 108.847656 21.429688 C 108.847656 29.570312 111.917969 37.007812 116.980469 42.722656 C 119.078125 45.082031 121.511719 47.144531 124.21875 48.832031 C 125.84375 46.40625 127.203125 43.789062 128.246094 41.023438 C 129.816406 36.855469 130.675781 32.347656 130.675781 27.648438 C 130.675781 24.859375 130.371094 22.136719 129.789062 19.507812 C 129.746094 19.289062 129.6875 19.070312 129.636719 18.851562 C 128.464844 14.375 124.328125 11.0625 119.414062 11.0625 Z M 54.238281 41.023438 C 55.285156 43.789062 56.644531 46.40625 58.277344 48.832031 C 60.972656 47.144531 63.40625 45.082031 65.503906 42.722656 C 70.570312 37.015625 73.648438 29.570312 73.648438 21.429688 C 73.648438 15.714844 68.910156 11.0625 63.074219 11.0625 C 58.160156 11.0625 54.027344 14.378906 52.851562 18.847656 C 52.808594 19.066406 52.75 19.285156 52.699219 19.503906 C 52.128906 22.136719 51.820312 24.859375 51.820312 27.648438 C 51.820312 32.34375 52.675781 36.855469 54.246094 41.023438 Z M 171.546875 35.949219 L 181.617188 40.898438 C 174.335938 55.160156 159.308594 64.964844 141.941406 64.964844 C 136.835938 64.964844 131.941406 64.109375 127.367188 62.550781 C 118.167969 71.710938 105.390625 77.402344 91.242188 77.402344 C 77.09375 77.402344 64.308594 71.707031 55.113281 62.542969 C 50.550781 64.105469 45.636719 64.953125 40.535156 64.953125 C 22.460938 64.953125 6.910156 54.335938 0 39.109375 L 10.308594 34.613281 C 15.46875 45.964844 27.066406 53.902344 40.535156 53.902344 C 42.992188 53.902344 45.390625 53.628906 47.695312 53.128906 C 43.152344 45.667969 40.542969 36.960938 40.542969 27.644531 C 40.542969 24.097656 40.925781 20.636719 41.640625 17.300781 C 41.746094 16.820312 41.859375 16.351562 41.976562 15.878906 C 44.464844 6.734375 52.964844 0.00390625 63.066406 0.00390625 C 63.269531 0.00390625 63.460938 0.0117188 63.664062 0.0195312 C 64.277344 0.0351562 64.890625 0.0664062 65.496094 0.132812 C 76.417969 1.320312 84.902344 10.402344 84.902344 21.429688 C 84.902344 36.253906 77.347656 49.335938 65.820312 57.191406 C 72.691406 62.894531 81.5625 66.34375 91.242188 66.34375 C 100.921875 66.34375 109.789062 62.890625 116.660156 57.191406 C 105.132812 49.335938 97.578125 36.246094 97.578125 21.429688 C 97.578125 10.398438 106.0625 1.316406 116.976562 0.128906 C 117.582031 0.0625 118.191406 0.03125 118.808594 0.015625 C 119.011719 0.015625 119.203125 0 119.410156 0 C 129.519531 0 138.011719 6.734375 140.503906 15.882812 C 140.621094 16.355469 140.734375 16.824219 140.839844 17.300781 C 141.558594 20.636719 141.9375 24.105469 141.9375 27.644531 C 141.9375 36.960938 139.328125 45.679688 134.789062 53.128906 C 137.09375 53.628906 139.480469 53.902344 141.9375 53.902344 C 154.878906 53.902344 166.09375 46.582031 171.535156 35.949219 Z M 171.546875 35.949219 "/>
<path style=" stroke:none;fill-rule:nonzero;fill:rgb(15.686275%,14.509804%,38.431373%);fill-opacity:1;" d="M 214.707031 69.523438 L 226.332031 69.523438 L 226.332031 23.007812 L 247.34375 23.007812 L 247.34375 11.378906 L 193.695312 11.378906 L 193.695312 23.007812 L 214.707031 23.007812 Z M 214.707031 69.523438 "/>
<path style=" stroke:none;fill-rule:nonzero;fill:rgb(15.686275%,14.509804%,38.431373%);fill-opacity:1;" d="M 241.910156 48.757812 C 241.910156 61.132812 250.132812 70.519531 264.167969 70.519531 C 272.136719 70.519531 277.289062 67.863281 280.691406 65.039062 L 276.125 55.984375 C 273.21875 58.476562 269.316406 60.21875 264.332031 60.21875 C 259.515625 60.21875 254.53125 57.8125 253.203125 52.246094 L 253.121094 52.078125 L 283.683594 52.078125 L 283.683594 49.089844 C 283.683594 35.714844 275.875 26.996094 263.167969 26.996094 C 250.132812 26.996094 241.910156 36.464844 241.910156 48.757812 Z M 271.722656 44.105469 L 253.039062 44.105469 C 254.117188 39.039062 257.605469 36.296875 262.835938 36.296875 C 268.152344 36.296875 271.226562 39.621094 271.722656 44.105469 Z M 271.722656 44.105469 "/>
<path style=" stroke:none;fill-rule:nonzero;fill:rgb(15.686275%,14.509804%,38.431373%);fill-opacity:1;" d="M 288.136719 48.757812 C 288.136719 61.132812 296.359375 70.519531 310.390625 70.519531 C 318.363281 70.519531 323.511719 67.863281 326.917969 65.039062 L 322.351562 55.984375 C 319.445312 58.476562 315.539062 60.21875 310.558594 60.21875 C 305.742188 60.21875 300.757812 57.8125 299.429688 52.246094 L 299.347656 52.078125 L 329.90625 52.078125 L 329.90625 49.089844 C 329.90625 35.714844 322.101562 26.996094 309.394531 26.996094 C 296.359375 26.996094 288.136719 36.464844 288.136719 48.757812 Z M 317.949219 44.105469 L 299.265625 44.105469 C 300.34375 39.039062 303.832031 36.296875 309.0625 36.296875 C 314.378906 36.296875 317.449219 39.621094 317.949219 44.105469 Z M 317.949219 44.105469 "/>
<path style=" stroke:none;fill-rule:nonzero;fill:rgb(15.686275%,14.509804%,38.431373%);fill-opacity:1;" d="M 335.941406 40.203125 C 335.941406 49.089844 343.246094 51.914062 349.726562 53.324219 C 356.867188 54.902344 358.941406 55.402344 358.941406 57.5625 C 358.941406 59.886719 356.535156 60.71875 353.460938 60.71875 C 347.234375 60.71875 342.914062 58.394531 340.257812 55.320312 L 333.863281 63.625 C 337.433594 68.027344 343.996094 70.519531 352.300781 70.519531 C 363.761719 70.519531 370.238281 66.117188 370.238281 56.980469 C 370.238281 48.675781 364.839844 45.765625 356.949219 43.941406 C 349.308594 42.195312 347.316406 41.78125 347.316406 39.785156 C 347.316406 37.957031 349.144531 36.878906 352.546875 36.878906 C 356.785156 36.878906 361.351562 38.375 363.84375 41.117188 L 369.988281 33.140625 C 366.25 29.238281 360.851562 26.996094 353.460938 26.996094 C 342.582031 26.996094 335.941406 31.730469 335.941406 40.203125 Z M 335.941406 40.203125 "/>
<path style=" stroke:none;fill-rule:nonzero;fill:rgb(15.686275%,14.509804%,38.431373%);fill-opacity:1;" d="M 376.675781 86.136719 L 387.636719 86.136719 L 387.636719 63.542969 C 390.875 68.027344 395.859375 70.601562 401.585938 70.601562 C 412.714844 70.601562 420.355469 61.632812 420.355469 48.757812 C 420.355469 35.800781 412.632812 26.910156 401.421875 26.910156 C 395.691406 26.910156 390.792969 29.320312 387.636719 33.722656 L 387.636719 27.992188 L 376.675781 27.992188 Z M 398.183594 59.886719 C 391.789062 59.886719 387.304688 55.402344 387.304688 48.757812 C 387.304688 42.113281 391.789062 37.625 398.183594 37.625 C 404.578125 37.625 409.0625 42.195312 409.0625 48.757812 C 409.0625 55.320312 404.578125 59.886719 398.183594 59.886719 Z M 398.183594 59.886719 "/>
<path style=" stroke:none;fill-rule:nonzero;fill:rgb(15.686275%,14.509804%,38.431373%);fill-opacity:1;" d="M 437.988281 34.800781 L 437.988281 27.992188 L 427.441406 27.992188 L 427.441406 69.523438 L 438.402344 69.523438 L 438.402344 50.75 C 438.402344 42.777344 441.640625 38.707031 448.867188 38.707031 C 450.609375 38.707031 452.355469 38.871094 453.851562 39.371094 L 453.851562 27.574219 C 452.519531 27.242188 451.277344 26.992188 449.78125 26.992188 C 443.96875 26.992188 440.230469 29.984375 437.988281 34.800781 Z M 437.988281 34.800781 "/>
<path style=" stroke:none;fill-rule:nonzero;fill:rgb(15.686275%,14.509804%,38.431373%);fill-opacity:1;" d="M 465.703125 23.089844 C 469.769531 23.089844 472.761719 20.101562 472.761719 16.113281 C 472.761719 12.042969 469.769531 9.050781 465.703125 9.050781 C 461.714844 9.050781 458.726562 12.042969 458.726562 16.113281 C 458.726562 20.101562 461.714844 23.089844 465.703125 23.089844 Z M 471.183594 27.992188 L 460.222656 27.992188 L 460.222656 69.523438 L 471.183594 69.523438 Z M 471.183594 27.992188 "/>
<path style=" stroke:none;fill-rule:nonzero;fill:rgb(15.686275%,14.509804%,38.431373%);fill-opacity:1;" d="M 481.453125 69.523438 L 492.414062 69.523438 L 492.414062 49.671875 C 492.414062 41.78125 495.488281 37.542969 501.300781 37.542969 C 506.367188 37.542969 509.023438 40.617188 509.023438 46.515625 L 509.023438 69.523438 L 520.234375 69.523438 L 520.234375 43.523438 C 520.234375 32.976562 514.921875 26.996094 505.617188 26.996094 C 500.054688 26.996094 495.238281 29.484375 492.082031 34.304688 L 492.082031 27.992188 L 481.453125 27.992188 Z M 481.453125 69.523438 "/>
<path style=" stroke:none;fill-rule:nonzero;fill:rgb(15.686275%,14.509804%,38.431373%);fill-opacity:1;" d="M 527.539062 48.589844 C 527.539062 61.464844 535.261719 69.9375 547.054688 69.9375 C 552.78125 69.9375 557.601562 67.613281 560.421875 63.542969 L 560.421875 66.199219 C 560.421875 73.34375 556.355469 76.917969 548.296875 76.917969 C 543.316406 76.917969 539.246094 75.171875 535.675781 71.683594 L 530.277344 80.738281 C 535.011719 85.140625 540.90625 87.214844 548.632812 87.214844 C 563.328125 87.214844 571.21875 80.074219 571.21875 66.78125 L 571.21875 27.992188 L 560.257812 27.992188 L 560.257812 33.804688 C 557.601562 29.570312 552.449219 26.996094 546.722656 26.996094 C 535.425781 26.996094 527.539062 35.882812 527.539062 48.589844 Z M 560.507812 48.757812 C 560.507812 55.402344 556.1875 59.886719 549.792969 59.886719 C 543.316406 59.886719 538.832031 55.320312 538.832031 48.757812 C 538.832031 42.195312 543.316406 37.625 549.792969 37.625 C 556.1875 37.625 560.507812 42.113281 560.507812 48.757812 Z M 560.507812 48.757812 "/>
</g>
</svg>
