<?xml version="1.0" encoding="UTF-8"?>
<svg xmlns="http://www.w3.org/2000/svg" xmlns:xlink="http://www.w3.org/1999/xlink" width="150px" height="150px" viewBox="0 0 489 489" version="1.1">
<g id="surface1">
<path style=" stroke:none;fill-rule:nonzero;fill:rgb(18.431373%,71.764706%,92.54902%);fill-opacity:1;" d="M 239.699219 197.101562 C 237 193.875 235.949219 189.976562 236.625 185.25 C 237.300781 180.601562 239.476562 176.625 243.148438 173.398438 C 246.824219 170.175781 250.949219 168.601562 255.601562 168.601562 C 260.25 168.601562 263.925781 170.175781 266.625 173.398438 C 269.324219 176.625 270.375 180.523438 269.699219 185.25 C 269.023438 189.898438 266.851562 193.875 263.175781 197.101562 C 259.5 200.324219 255.375 201.898438 250.726562 201.898438 C 246.148438 201.898438 242.398438 200.324219 239.699219 197.101562 M 202.648438 213.148438 C 197.175781 213.148438 192.148438 217.574219 191.398438 223.050781 L 185.851562 263.476562 C 185.25 267.898438 183.148438 271.726562 179.550781 274.949219 C 175.949219 278.175781 171.898438 279.824219 167.398438 279.824219 C 163.050781 279.824219 159.449219 278.25 156.75 275.101562 C 154.050781 271.949219 153 268.050781 153.601562 263.550781 L 156.976562 239.023438 C 157.050781 234.148438 153.375 230.324219 148.351562 230.324219 L 135.074219 230.324219 C 130.050781 230.324219 125.25 234.148438 124.050781 239.023438 L 120.601562 263.550781 C 120 268.050781 117.824219 271.949219 114.300781 275.101562 C 110.699219 278.25 106.726562 279.824219 102.375 279.824219 C 98.023438 279.824219 94.425781 278.175781 91.648438 274.949219 C 88.875 271.726562 87.824219 267.898438 88.425781 263.476562 L 95.851562 209.851562 C 96.601562 204.601562 93.523438 199.199219 88.800781 196.949219 C 88.800781 196.949219 32.925781 173.625 29.25 172.125 C 25.574219 170.625 21.375 174 19.949219 179.625 L 16.5 193.125 C 15.074219 198.75 18.300781 205.199219 23.625 207.375 L 61.050781 222.898438 L 55.425781 263.398438 C 53.550781 276.976562 56.699219 288.601562 64.949219 298.273438 C 73.199219 307.949219 84.074219 312.75 97.648438 312.75 C 110.101562 312.75 121.574219 308.550781 131.851562 300.148438 C 140.101562 308.550781 150.375 312.75 162.75 312.75 C 176.25 312.75 188.476562 307.949219 199.425781 298.273438 C 210.375 288.675781 216.75 277.050781 218.625 263.398438 C 218.625 263.398438 224.476562 220.648438 224.625 219.898438 C 225.148438 216.148438 221.101562 213.148438 215.625 213.148438 Z M 257.550781 212.699219 L 245.851562 212.699219 C 240.976562 212.699219 236.398438 216.675781 235.726562 221.550781 C 235.726562 221.550781 223.949219 305.773438 223.875 306.148438 C 223.425781 309.523438 227.023438 312.226562 231.898438 312.226562 L 243.601562 312.226562 C 248.476562 312.226562 253.050781 308.25 253.726562 303.375 L 265.574219 218.773438 C 266.101562 215.476562 262.5 212.699219 257.550781 212.699219 M 458.324219 223.800781 C 451.574219 215.851562 442.5 211.949219 431.023438 211.949219 C 419.550781 211.949219 408.824219 214.425781 398.324219 223.574219 L 405.824219 171.75 C 406.273438 168.375 402.601562 165.523438 397.574219 165.523438 L 385.648438 165.523438 C 380.625 165.523438 375.976562 169.574219 375.300781 174.601562 L 356.101562 306.601562 C 355.648438 309.976562 359.324219 312.824219 364.351562 312.824219 L 376.273438 312.824219 C 381.148438 312.824219 385.726562 308.925781 386.550781 304.050781 L 392.550781 262.875 C 393.75 254.550781 396.976562 248.25 402.148438 243.976562 C 407.324219 239.699219 412.949219 237.523438 419.101562 237.523438 C 431.476562 237.523438 436.425781 245.699219 434.023438 262.050781 L 427.648438 306.449219 C 427.199219 309.824219 430.875 312.675781 435.898438 312.675781 L 447.75 312.675781 C 452.773438 312.675781 457.425781 308.625 458.101562 303.601562 L 465.449219 255.523438 C 467.398438 242.25 465 231.675781 458.324219 223.800781 M 347.324219 238.351562 L 352.875 231.226562 C 355.273438 228.226562 355.273438 223.574219 353.023438 220.351562 C 352.050781 218.625 349.125 216.976562 346.425781 215.550781 L 346.125 215.398438 C 337.726562 210.824219 329.476562 209.101562 318.523438 209.625 C 306.601562 210.226562 296.476562 213.75 288.375 220.050781 C 280.199219 226.425781 275.550781 234.523438 274.648438 244.125 C 273.675781 253.800781 276.976562 261.074219 284.398438 265.648438 C 287.925781 267.898438 291.148438 269.550781 293.925781 270.675781 C 296.699219 271.800781 300.824219 273.148438 306.148438 274.574219 C 311.324219 276 315.300781 277.648438 317.851562 279.449219 C 320.25 281.101562 321.300781 282.824219 321.074219 284.773438 C 320.851562 286.800781 319.800781 288.523438 317.851562 289.875 C 315.824219 291.300781 313.050781 292.125 309.675781 292.273438 C 300.601562 292.726562 292.050781 290.625 284.25 285.976562 L 278.476562 282.75 C 277.5 282.226562 276.449219 282 275.324219 282.074219 C 273.523438 282.148438 271.875 282.976562 270.75 284.398438 L 262.425781 295.425781 C 261.601562 296.550781 261.226562 297.898438 261.449219 299.25 C 261.675781 300.523438 262.425781 301.648438 263.550781 302.398438 C 266.25 304.574219 269.101562 306.375 271.949219 307.949219 C 275.773438 310.050781 279.75 311.699219 283.875 312.898438 C 291.675781 315.226562 299.476562 316.199219 306.976562 315.824219 C 318.226562 315.300781 327.976562 311.699219 335.925781 305.25 C 343.949219 298.726562 348.449219 290.25 349.5 280.125 C 350.476562 269.773438 347.550781 262.5 340.726562 258.375 C 337.199219 256.273438 334.125 254.773438 331.5 253.800781 C 328.875 252.824219 324.523438 251.550781 318.449219 249.824219 C 312.449219 248.175781 308.175781 246.675781 305.625 245.324219 C 303.449219 244.125 302.476562 242.550781 302.699219 240.375 C 303.074219 236.25 307.351562 234 315.226562 233.625 C 321.601562 233.324219 327.976562 234.75 334.199219 237.976562 C 335.476562 238.648438 336.898438 239.550781 338.175781 240.375 C 339.75 241.273438 341.023438 241.648438 342.148438 241.574219 C 344.25 241.425781 345.675781 240.449219 347.324219 238.351562 Z M 347.324219 238.351562 "/>
</g>
</svg>
